<svg xmlns="http://www.w3.org/2000/svg" width="516.634" height="413.793" viewBox="0 0 516.634 413.793">
  <g id="Group_3597" data-name="Group 3597" transform="translate(-703 -322)">
    <path id="Path_9541" data-name="Path 9541" d="M197.292,146.378H154.208a4.217,4.217,0,0,1-4.217-4.428,9.1,9.1,0,0,1,12.932-7.788,14.565,14.565,0,0,1,28.4-.235,8.222,8.222,0,0,1,2.467-.094,8.716,8.716,0,0,1,7.729,8.222,4.088,4.088,0,0,1-1.175,3.054A4.288,4.288,0,0,1,197.292,146.378Zm-38.2-10.959a7.892,7.892,0,0,0-1.292.117,7.048,7.048,0,0,0-5.45,5.133,6.625,6.625,0,0,0-.223,1.421,2.067,2.067,0,0,0,.576,1.551,2.1,2.1,0,0,0,1.539.658h43.085a2.173,2.173,0,0,0,1.562-.658,1.915,1.915,0,0,0,.552-1.421,6.672,6.672,0,0,0-5.873-6.272,6.531,6.531,0,0,0-2.737.282l-1.175.388-.188-1.175a12.463,12.463,0,0,0-24.667.564l-.188,1.774-1.457-1.022a6.93,6.93,0,0,0-4.064-1.339Z" transform="translate(639.201 199.286)" fill="#1d60b7"/>
    <path id="Path_9542" data-name="Path 9542" d="M446.837,145.952h-35.5a5.368,5.368,0,0,1-3.782-1.574,4.933,4.933,0,0,1-1.468-3.524,9.959,9.959,0,0,1,.176-1.868,10.266,10.266,0,0,1,12.521-8.07,14.042,14.042,0,0,1,26.147,2.3,7.658,7.658,0,0,1,7.153,7.635,5.192,5.192,0,0,1-5.25,5.1ZM416.3,132.738a8.422,8.422,0,0,0-2.138.282,8.222,8.222,0,0,0-5.873,6.366,7.927,7.927,0,0,0-.141,1.492A2.866,2.866,0,0,0,409,142.9a3.266,3.266,0,0,0,2.291.951h35.5a3.1,3.1,0,0,0,3.148-2.925,5.579,5.579,0,0,0-5.556-5.591h-1.151l-.188-.869a11.946,11.946,0,0,0-22.74-1.938l-.388.928-.94-.329a8.069,8.069,0,0,0-2.631-.388Z" transform="translate(683.918 199.337)" fill="#1d60b7"/>
    <g id="Group_3414" data-name="Group 3414" transform="translate(703 363.046)">
      <path id="Path_9509" data-name="Path 9509" d="M151.36,93.174a6.079,6.079,0,0,0-.106-1.386h-.164c0-.4-.059-.8-.082-1.175l-.106-1.175a162.028,162.028,0,0,0-6.766-35.508A90.129,90.129,0,0,0,128.5,23.955a65.777,65.777,0,0,0-24.667-18.7C94.063,1.038,82.692-.618,69.948.2,56.933,1.1,45.7,4.339,36.577,9.848A64.968,64.968,0,0,0,14.565,31.7,93.885,93.885,0,0,0,2.819,63.539,149.521,149.521,0,0,0,.47,89.451V91.8H0c0,3.947.153,7.87.423,11.676,0,.717.094,1.445.153,2.15,0,.4.059.787.094,1.175a163.772,163.772,0,0,0,6.8,35.755,90.725,90.725,0,0,0,15.7,30.117,66.2,66.2,0,0,0,24.772,18.794c9.82,4.24,21.272,5.944,34.064,5.074,13.073-.893,24.35-4.158,33.523-9.691a65.1,65.1,0,0,0,22.106-21.942A94.215,94.215,0,0,0,149.422,132.9a148.285,148.285,0,0,0,2.349-26.112v-1.175C151.771,101.538,151.654,97.391,151.36,93.174Zm-47.207,52.07c-5.262,11.03-13.308,16.985-23.915,17.7-.7,0-1.4.082-2.079.082-9.467,0-17.337-4.863-23.386-14.436-5.8-9.127-9.538-22.846-11.347-41.8l-.106-1.175c-.141-1.633-.282-3.324-.4-5.039-.2-2.96-.341-5.873-.423-8.786h-.564V89.439c-.258-16.445,1.727-29.271,5.944-38.2C53.127,40.247,61.138,34.315,71.7,33.622c.693,0,1.386-.07,2.067-.07,9.4,0,17.255,4.828,23.269,14.365,5.779,9.08,9.491,22.705,11.288,41.534,0,.388.082.775.106,1.175s.082.787.106,1.175c.059.587.106,1.175.153,1.8l.176,2.431L109,98.237c.129,2.126.235,4.193.305,6.214V106.8C109.8,123.35,108.393,136.259,104.152,145.245Z" transform="matrix(0.999, 0.035, -0.035, 0.999, 189.84, 168.376)" fill="#fff"/>
      <path id="Path_9510" data-name="Path 9510" d="M67.4,70.888v1.175H66.223q-.106-4.7-.446-9.843c-.153-2.173-.329-4.287-.517-6.343-1.8-18.394-5.462-32.02-11.112-40.912C47.911,5.086,39.795.505,29.869,1.222Q14.6,2.243,7.035,18.171q-6.2,13.2-5.873,37.7v1.175q.106,4.581.435,9.55.2,2.8.458,5.462H1.408c-.141-1.633-.282-3.324-.4-5.039-.2-2.96-.341-5.873-.423-8.786H.022V55.888c-.258-16.445,1.727-29.271,5.944-38.2C11.216,6.7,19.227.764,29.787.07,30.48.07,31.173,0,31.854,0c9.4,0,17.255,4.828,23.269,14.365C60.9,23.445,64.614,37.071,66.411,55.9c0,.388.082.775.106,1.175s.082.787.106,1.175c.059.587.106,1.175.153,1.8l.176,2.431.141,2.208C67.222,66.8,67.327,68.867,67.4,70.888Z" transform="matrix(0.999, 0.035, -0.035, 0.999, 230.496, 203.367)" fill="#fff"/>
      <path id="Path_9511" data-name="Path 9511" d="M153.474,106.794h-.987q0-6.114-.435-12.439a6.08,6.08,0,0,0-.106-1.386h-.164c0-.4-.059-.8-.082-1.175l-.106-1.175a162.03,162.03,0,0,0-6.742-35.508,90.127,90.127,0,0,0-15.634-29.976,65.778,65.778,0,0,0-24.667-18.7C94.779,2.219,83.409.562,70.664,1.385,57.65,2.277,46.42,5.519,37.294,11.028A64.968,64.968,0,0,0,15.282,32.876,93.885,93.885,0,0,0,3.536,64.719,149.517,149.517,0,0,0,1.186,90.631V92.98H.716c0,3.947.153,7.87.423,11.676,0,.717.094,1.445.153,2.149H.634c-.07-.822-.141-1.633-.2-2.467Q0,97.926,0,91.794V90.62A147.828,147.828,0,0,1,2.349,64.508,94.814,94.814,0,0,1,14.283,32.277,65.931,65.931,0,0,1,36.695,10.03Q50.684,1.6,70.594.222c13.05-.881,24.5.869,34.439,5.145A66.764,66.764,0,0,1,130.17,24.372a91.162,91.162,0,0,1,15.845,30.364,163.326,163.326,0,0,1,6.824,35.873c0,.388.059.787.094,1.175,0,.7.106,1.409.153,2.126C153.357,98.313,153.486,102.6,153.474,106.794Z" transform="matrix(0.999, 0.035, -0.035, 0.999, 189.165, 167.171)" fill="#fff"/>
      <path id="Path_9512" data-name="Path 9512" d="M111.247,108v-1.175h0c-.059-2.044-.153-4.123-.258-6.214l-.141-2.208-.176-2.431c0-.611-.094-1.175-.153-1.8A9.483,9.483,0,0,0,110.413,93c-.047-.376-.059-.787-.106-1.175-1.8-18.794-5.509-32.454-11.288-41.534C93.005,40.756,85.171,35.929,75.75,35.929a20.375,20.375,0,0,0-2.067.07c-10.571.7-18.571,6.637-23.821,17.619-4.217,8.927-6.2,21.742-5.944,38.2v2.349h.564c.082,2.878.223,5.873.423,8.786.117,1.715.258,3.406.4,5.039l.106,1.175h1.821c-.2-2.067-.388-4.193-.54-6.378v-.341c-1.433-21.307.341-37.4,5.262-47.842S64.016,38.971,73.812,38.313c9.4-.681,17.22,3.759,23.187,13.214,5.873,9.162,9.608,23.939,11.241,43.919l.211,2.784c.223,3.3.364,6.6.446,9.8V109.2h2.42Zm44.212-12.921c-.07-1.081-.153-2.161-.247-3.23a166.128,166.128,0,0,0-6.883-36.225,92.549,92.549,0,0,0-16.057-30.763,68.281,68.281,0,0,0-25.536-19.4C96.6,1.1,84.842-.661,71.745.22,58.366,1.137,46.785,4.5,37.317,10.2a67.258,67.258,0,0,0-22.8,22.623A96.153,96.153,0,0,0,2.431,65.458,150.961,150.961,0,0,0,0,91.8v1.327c0,4.088.153,8.222.446,12.474,0,.6.082,1.175.141,1.809l.129,1.75H2.561c0-.388-.059-.775-.094-1.175-.059-.7-.106-1.433-.153-2.15-.27-3.806-.411-7.729-.423-11.676h.47V91.816A149.519,149.519,0,0,1,4.71,65.9,93.886,93.886,0,0,1,16.456,34.061,64.968,64.968,0,0,1,38.468,12.213C47.6,6.7,58.824,3.462,71.839,2.57,84.548,1.7,95.954,3.4,105.726,7.62a65.777,65.777,0,0,1,24.667,18.7,90.127,90.127,0,0,1,15.693,30,162.03,162.03,0,0,1,6.766,35.52l.106,1.175a5.648,5.648,0,0,0,.082,1.175h.164c0,.458.082.916.106,1.386.294,4.205.435,8.363.435,12.439v1.175h2.15v-1.175c0-4.381-.141-8.751-.435-12.932ZM111.2,106.828h0c-.059-2.044-.153-4.123-.258-6.214l-.141-2.208-.176-2.431c0-.6-.106-1.175-.164-1.8h0A9.486,9.486,0,0,0,110.354,93c-.047-.376-.059-.787-.106-1.175-1.8-18.794-5.509-32.454-11.288-41.534-6.014-9.538-13.849-14.365-23.269-14.365a20.375,20.375,0,0,0-2.067.07c-10.571.7-18.571,6.637-23.821,17.619-4.217,8.927-6.2,21.742-5.944,38.2v2.349h.623c.082,2.878.223,5.873.423,8.786.117,1.715.258,3.406.4,5.039l.106,1.175h1.821c-.2-2.067-.388-4.193-.54-6.378v-.341c-1.433-21.307.341-37.4,5.262-47.842S64.016,38.971,73.812,38.313c9.4-.681,17.22,3.759,23.187,13.214,5.873,9.162,9.608,23.939,11.241,43.919l.211,2.784c.223,3.3.364,6.6.446,9.8V109.2h2.032v-1.175h.376A10.54,10.54,0,0,1,111.2,106.828Zm0,1.175v-1.175h0c-.059-2.044-.153-4.123-.258-6.214l-.141-2.208-.176-2.431c0-.611-.094-1.175-.153-1.8A9.492,9.492,0,0,0,110.366,93c-.047-.376-.059-.787-.106-1.175-1.8-18.794-5.509-32.454-11.288-41.534C92.958,40.756,85.124,35.929,75.7,35.929a20.375,20.375,0,0,0-2.067.07c-10.571.7-18.571,6.637-23.821,17.619-4.217,8.927-6.2,21.742-5.944,38.2v2.349h.611c.082,2.878.223,5.873.423,8.786.117,1.715.258,3.406.4,5.039l.106,1.175h1.821c-.2-2.067-.388-4.193-.54-6.378v-.341c-1.433-21.307.341-37.4,5.262-47.842S64.016,38.971,73.812,38.313c9.4-.681,17.22,3.759,23.187,13.214,5.873,9.162,9.608,23.939,11.241,43.919l.211,2.784c.223,3.3.364,6.6.446,9.8V109.2h2.42Zm0,0v-1.175h0c-.059-2.044-.153-4.123-.258-6.214l-.141-2.208-.176-2.431c0-.6-.106-1.175-.164-1.8h0A9.486,9.486,0,0,0,110.354,93c-.047-.376-.059-.787-.106-1.175-1.8-18.794-5.509-32.454-11.288-41.534-6.014-9.538-13.849-14.365-23.269-14.365a20.375,20.375,0,0,0-2.067.07c-10.571.7-18.571,6.637-23.821,17.619-4.217,8.927-6.2,21.742-5.944,38.2v2.349h.623c.082,2.878.223,5.873.423,8.786.117,1.715.258,3.406.4,5.039l.106,1.175h1.821c-.2-2.067-.388-4.193-.54-6.378v-.341c-1.433-21.307.341-37.4,5.262-47.842S64.016,38.971,73.812,38.313c9.4-.681,17.22,3.759,23.187,13.214,5.873,9.162,9.608,23.939,11.241,43.919l.211,2.784c.223,3.3.364,6.6.446,9.8V109.2h2.032v-1.175Z" transform="matrix(0.999, 0.035, -0.035, 0.999, 187.974, 165.92)" fill="#8f999e"/>
      <path id="Path_9513" data-name="Path 9513" d="M153.78,2.49c0-.834-.117-1.656-.188-2.49h-1.339a5.645,5.645,0,0,0,.082,1.175h.164c0,.458.082.916.106,1.386.294,4.205.435,8.363.435,12.439v1.175a148.292,148.292,0,0,1-2.349,26.112A94.214,94.214,0,0,1,138.85,74.27a65.1,65.1,0,0,1-22.106,21.942c-9.174,5.532-20.45,8.8-33.523,9.69-12.768.869-24.22-.834-34.064-5.074A66.2,66.2,0,0,1,24.385,82.035,90.727,90.727,0,0,1,8.68,51.918,163.775,163.775,0,0,1,1.844,16.186c0-.388-.059-.775-.094-1.175-.059-.7-.106-1.433-.153-2.149-.27-3.806-.411-7.729-.423-11.676h.47V.012H0C0,4.229.117,8.539.423,12.932q.106,1.633.247,3.242A164.647,164.647,0,0,0,7.541,52.282a91.338,91.338,0,0,0,15.916,30.54,66.953,66.953,0,0,0,25.2,19.111c9.972,4.3,21.484,6.061,34.592,5.168q19.968-1.374,34.064-9.855a66.166,66.166,0,0,0,22.505-22.318,94.79,94.79,0,0,0,12.028-32.419,149.748,149.748,0,0,0,2.349-26.323Q154.273,9.491,153.78,2.49Zm-110-1.3c.082,2.878.223,5.873.423,8.786.117,1.715.258,3.406.4,5.039l.106,1.175c1.809,18.958,5.544,32.678,11.347,41.8C62.1,67.563,69.971,72.426,79.439,72.426a17.774,17.774,0,0,0,2.079-.082c10.571-.716,18.653-6.672,23.915-17.7,4.24-8.986,5.65-21.895,5.18-38.457V13.837c-.07-2.02-.176-4.088-.305-6.214l-.141-2.208-.176-2.431c0-.611-.094-1.175-.153-1.8a9.488,9.488,0,0,0-.106-1.175h-.341c.176,1.8.329,3.618.458,5.5q.329,4.957.435,9.514V16.2q.423,24.667-5.873,37.952-7.647,16-22.94,17.032Q66.518,72.262,57.086,57.368,48.541,43.96,45.927,16.2c-.2-2.032-.364-4.135-.517-6.3-.235-3.442-.376-6.731-.446-9.89h-1.75V1.186Z" transform="matrix(0.999, 0.035, -0.035, 0.999, 185.434, 258.879)" fill="#fff"/>
      <path id="Path_9514" data-name="Path 9514" d="M111.282,17.361h-2.42V16.186c-.082-3.195-.223-6.5-.446-9.8L108.2,3.606a25.373,25.373,0,0,0,.129,3.113c1.433,21.4.611,37.587-4.334,48.053s-12.145,15.74-21.93,16.4c-9.467.681-17.3-3.77-23.3-13.273-5.5-8.645-9.643-22.259-11.523-40.536-.2-2.067-.388-4.193-.54-6.378v-.341c-.247-3.195-.963-6.378-1.034-9.467h-1.75V2.349h.564c.082,2.878.223,5.873.423,8.786.117,1.715.258,3.406.4,5.039l.106,1.175c1.809,18.958,5.544,32.678,11.347,41.8,6.049,9.573,13.919,14.436,23.386,14.436a17.774,17.774,0,0,0,2.079-.082c10.571-.717,18.653-6.672,23.915-17.7C110.343,46.832,111.752,33.923,111.282,17.361Zm44.259-13.79a11.379,11.379,0,0,0-.094-1.785L155.213,0h-2.349l.106,1.175a5.65,5.65,0,0,0,.082,1.175h.164c0,.458.082.916.106,1.386.294,4.205.435,8.363.435,12.439v1.175a148.3,148.3,0,0,1-2.349,26.112,94.216,94.216,0,0,1-11.84,31.985,65.1,65.1,0,0,1-22.106,21.942c-9.174,5.532-20.45,8.8-33.523,9.69-12.768.869-24.22-.834-34.064-5.074A66.2,66.2,0,0,1,25.1,83.209,90.728,90.728,0,0,1,9.4,53.092,163.774,163.774,0,0,1,2.549,17.361c0-.388-.059-.775-.094-1.175-.059-.7-.106-1.433-.153-2.149-.27-3.806-.411-7.729-.423-11.676h.47V.012H0V1.339c0,4.346,0,8.7.27,12.921.951,14.295,3.042,27.592,6.848,39.6A93.2,93.2,0,0,0,23.245,84.748,68.608,68.608,0,0,0,48.9,104.211c10.172,4.381,21.989,6.143,35.144,5.25,13.449-.916,25.078-4.287,34.58-10.019a67.529,67.529,0,0,0,22.9-22.729,96.811,96.811,0,0,0,12.192-32.807A161.554,161.554,0,0,0,155.541,3.571ZM43.883,2.4h.6c.082,2.878.223,5.873.423,8.786.117,1.715.258,3.406.4,5.039L45.41,17.4c1.809,18.958,5.544,32.678,11.347,41.8,6.049,9.573,13.919,14.436,23.386,14.436a17.793,17.793,0,0,0,2.079-.082c10.571-.716,18.653-6.672,23.915-17.7,4.24-8.986,5.65-21.895,5.18-38.457V15.047c-.07-2.02-.176-4.088-.305-6.214l-.141-2.208-.176-2.431c0-.6-.106-1.175-.164-1.8h0a9.476,9.476,0,0,0-.106-1.175c-.047-.376-.059-.787-.106-1.175h-2.408l.117,1.292c.082.775.117,1.562.141,2.349A25.367,25.367,0,0,0,108.3,6.8c1.433,21.4.611,37.587-4.334,48.053S91.854,70.512,82.07,71.169c-9.467.681-17.3-3.77-23.3-13.273-5.5-8.645-9.643-22.259-11.523-40.536-.2-2.067-.388-4.193-.54-6.378v-.341c-.247-3.195-.963-6.378-1.034-9.467h0V0h-1.75V1.175c0,.4-.059.787-.035,1.186Zm67.4,14.965V15.011c-.07-2.02-.176-4.088-.305-6.214l-.141-2.208-.176-2.431c0-.6-.106-1.175-.164-1.8h0a9.489,9.489,0,0,0-.106-1.175h-.341c.176,1.8.329,3.618.458,5.5q.329,4.957.435,9.514h-.858q-.106-4.7-.446-9.843c-.153-2.173-.329-4.287-.517-6.343h-1.175l.117,1.292c.082.775.117,1.562.141,2.349a25.375,25.375,0,0,0,.129,3.113c1.433,21.4.611,37.587-4.334,48.053S91.854,70.512,82.07,71.169c-9.467.681-17.3-3.77-23.3-13.273-5.5-8.645-9.643-22.259-11.523-40.536-.2-2.067-.388-4.193-.54-6.378v-.341c-.247-3.195-.963-6.378-1.034-9.467h-.576q.106,4.581.435,9.55.2,2.8.458,5.462H45.34l.106,1.175c1.809,18.958,5.544,32.678,11.347,41.8C62.842,68.738,70.711,73.6,80.179,73.6a17.772,17.772,0,0,0,2.079-.082c10.571-.716,18.653-6.672,23.915-17.7C110.343,46.832,111.752,33.923,111.282,17.361Z" transform="matrix(0.999, 0.035, -0.035, 0.999, 184.77, 257.68)" fill="#8f999e"/>
      <path id="Path_9515" data-name="Path 9515" d="M178.023,169.085l-10.031-38.468-21.061,1.421-3.195-46.82L103.365,87.99l3.195,46.761-41.828,2.89L116.709,11.229,79.2,0,0,178.482Z" transform="matrix(0.999, 0.035, -0.035, 0.999, 337.285, 129.995)" fill="#8f999e"/>
      <path id="Path_9516" data-name="Path 9516" d="M181.171,171.681,0,181.077,80.284,0l39.772,11.9L68.3,137.758l38.774-2.678-3.207-46.761,42.72-2.925,3.195,46.808,20.955-1.41Z" transform="matrix(0.999, 0.035, -0.035, 0.999, 335.572, 128.513)" fill="#8f999e"/>
      <path id="Path_9517" data-name="Path 9517" d="M0,175.874l174.9-9.4-9.644-36.06-21.166,1.445-3.195-46.82-38.022,2.608,3.195,46.761-44.894,3.1L113.385,10.548,78.135,0Z" transform="matrix(0.999, 0.035, -0.035, 0.999, 338.983, 131.488)" fill="#8f999e"/>
      <path id="Path_9518" data-name="Path 9518" d="M0,2.713,3.195,48.347l40.371-2.76L40.371,0Z" transform="matrix(0.999, 0.035, -0.035, 0.999, 441.962, 301.205)" fill="#8f999e"/>
      <path id="Path_9519" data-name="Path 9519" d="M42.709,0l3.207,45.587L3.195,48.511,0,2.866Z" transform="matrix(0.999, 0.035, -0.035, 0.999, 440.834, 302.258)" fill="#8f999e"/>
      <path id="Path_9520" data-name="Path 9520" d="M0,2.549,3.195,48.194l38.022-2.608L38.022,0Z" transform="matrix(0.999, 0.035, -0.035, 0.999, 443.215, 296.629)" fill="#8f999e"/>
      <path id="Path_9521" data-name="Path 9521" d="M178.024,169.073,167.992,130.6l-21.061,1.421-3.195-46.808-40.371,2.76,3.195,46.761-41.828,2.89L116.709,11.217,79.2,0,0,178.47Z" transform="matrix(0.999, 0.035, -0.035, 0.999, 8.032, 129.252)" fill="#8f999e"/>
      <path id="Path_9522" data-name="Path 9522" d="M181.171,171.681,0,181.077,80.284,0l39.772,11.9L68.3,137.77l38.774-2.69-3.207-46.761,42.72-2.925,3.195,46.82,20.955-1.421Z" transform="matrix(0.999, 0.035, -0.035, 0.999, 6.32, 127.758)" fill="#8f999e"/>
      <path id="Path_9523" data-name="Path 9523" d="M0,175.874l174.9-9.4-9.644-36.049-21.166,1.433-3.195-46.82-38.022,2.608,3.195,46.761-44.894,3.1L113.385,10.548,78.135,0Z" transform="matrix(0.999, 0.035, -0.035, 0.999, 9.732, 130.733)" fill="#8f999e"/>
      <path id="Path_9524" data-name="Path 9524" d="M0,2.713,3.195,48.359l40.371-2.772L40.371,0" transform="matrix(0.999, 0.035, -0.035, 0.999, 112.711, 300.449)" fill="#8f999e"/>
      <path id="Path_9525" data-name="Path 9525" d="M42.709,0l3.207,45.587L3.195,48.511,0,2.878" transform="matrix(0.999, 0.035, -0.035, 0.999, 111.581, 301.503)" fill="#8f999e"/>
      <path id="Path_9526" data-name="Path 9526" d="M0,2.549,3.195,48.194l38.034-2.608L38.022,0" transform="matrix(0.999, 0.035, -0.035, 0.999, 113.964, 295.874)" fill="#8f999e"/>
      <path id="Path_9527" data-name="Path 9527" d="M47.09,7.4c.4,5.016-9.808,9.925-22.811,10.971S.411,16.206.011,11.155,9.819,1.241,22.822.2,46.679,2.393,47.09,7.4Z" transform="matrix(0.999, 0.035, -0.035, 0.999, 231.531, 172.672)" fill="#e1e5e6"/>
      <path id="Path_9528" data-name="Path 9528" d="M17.111,7.8c-.728,2.02-5.121,2.291-9.82.611S-.625,3.717.1,1.709,5.224-.582,9.911,1.1,17.792,5.785,17.111,7.8Z" transform="matrix(0.999, 0.035, -0.035, 0.999, 284.322, 176.916)" fill="#e1e5e6"/>
      <path id="Path_9529" data-name="Path 9529" d="M13.366,53.613h0a2.936,2.936,0,0,1-2.936-2.948C10.489,25.023,2.842,8.2.88,5.078A2.983,2.983,0,0,1,1.127.626,2.96,2.96,0,0,1,4.24.3C7,1.648,11.135,14.639,11.17,14.768A120.265,120.265,0,0,1,16.3,50.676,2.937,2.937,0,0,1,13.366,53.613Z" transform="matrix(0.999, 0.035, -0.035, 0.999, 230.564, 127.722)" fill="#8f999e"/>
      <path id="Path_9530" data-name="Path 9530" d="M17.021,32.947A2.937,2.937,0,0,1,14.9,27.978c1.973-2.079,7.118-8.9,4.839-12.921C17.385,10.911,7.777,7.176,2.292,5.8A2.936,2.936,0,1,1,3.713.1c1.7.423,16.726,4.381,21.143,12.04,4.922,8.6-5.262,19.393-5.7,19.851a2.913,2.913,0,0,1-2.138.951Z" transform="matrix(0.999, 0.035, -0.035, 0.999, 297.141, 117.676)" fill="#8f999e"/>
      <path id="Path_9531" data-name="Path 9531" d="M2.931,43.046a3,3,0,0,1-1.363-.341,2.948,2.948,0,0,1-1.233-3.97L19.869,1.665A2.937,2.937,0,1,1,25.061,4.4L5.527,41.449A2.925,2.925,0,0,1,2.931,43.046Z" transform="matrix(0.999, 0.035, -0.035, 0.999, 294.664, 0)" fill="#8f999e"/>
      <path id="Path_9532" data-name="Path 9532" d="M50.137,10.834h-.305L2.647,5.889A2.952,2.952,0,1,1,3.258.016L50.442,4.961a2.94,2.94,0,0,1-.305,5.873Z" transform="matrix(0.999, 0.035, -0.035, 0.999, 169.378, 53.772)" fill="#8f999e"/>
      <path id="Path_9533" data-name="Path 9533" d="M110.467,112.87,32.4,137.009a2.972,2.972,0,0,1-3.735-1.962L.136,42.782a2.983,2.983,0,0,1,.2-2.267L10.4,21.228a2.96,2.96,0,0,1,1.762-1.468L75.593.132A3,3,0,0,1,79.328,2.1l33.1,107.03A3,3,0,0,1,110.467,112.87Z" transform="matrix(0.999, 0.035, -0.035, 0.999, 209.837, 8.809)" fill="#fff"/>
      <path id="Path_9534" data-name="Path 9534" d="M32.689,139.5a4.146,4.146,0,0,1-3.97-2.936L.188,44.294a4.088,4.088,0,0,1,.294-3.148L10.5,21.859A4.205,4.205,0,0,1,12.956,19.8L76.384.188A3.959,3.959,0,0,1,77.559,0a4.135,4.135,0,0,1,3.97,2.925l33.1,107.042a4.158,4.158,0,0,1-2.737,5.192l-78.076,24.15A4.361,4.361,0,0,1,32.689,139.5ZM77.665,2.349a1.657,1.657,0,0,0-.529.082L13.707,22.047a1.8,1.8,0,0,0-1.069.893L2.572,42.239A1.773,1.773,0,0,0,2.443,43.6l28.543,92.265a1.809,1.809,0,0,0,2.255,1.175l78.076-24.15a1.786,1.786,0,0,0,1.057-.881,1.75,1.75,0,0,0,.129-1.374L79.4,3.594a1.809,1.809,0,0,0-1.738-1.245Z" transform="matrix(0.999, 0.035, -0.035, 0.999, 208.699, 7.596)" fill="#8f999e"/>
      <path id="Path_9535" data-name="Path 9535" d="M17.1,7.663c1.374,5.873-1.269,12.4-5.873,14.459S1.738,21.041.364,15.074,1.632,2.682,6.237.627,15.728,1.742,17.1,7.663Z" transform="matrix(0.999, 0.035, -0.035, 0.999, 249.977, 59.091)" fill="#8f999e"/>
      <path id="Path_9536" data-name="Path 9536" d="M4.875.617A10.172,10.172,0,0,0,0,5.668,7.048,7.048,0,0,0,8.034,7.312a10.172,10.172,0,0,0,4.875-5.074A7.048,7.048,0,0,0,4.875.617Z" transform="matrix(0.999, 0.035, -0.035, 0.999, 251.315, 59.182)" fill="#fffcf3"/>
      <path id="Path_9537" data-name="Path 9537" d="M11.03,0l-.094.094L.129,20.579A3.126,3.126,0,0,0,0,21.131l13.25-4.1a2.913,2.913,0,0,0,1.926-3.641Z" transform="matrix(0.999, 0.035, -0.035, 0.999, 209.156, 29.191)" fill="#fffcf3"/>
      <path id="Path_9538" data-name="Path 9538" d="M0,24.843l.223-1.8a4.335,4.335,0,0,1,.164-.775l.082-.176L11.5,1.316a.8.8,0,0,1,.141-.141L13,0l4.7,15.129a3.994,3.994,0,0,1-.294,3.113,4.076,4.076,0,0,1-2.349,2ZM12.11,5.051,3.547,21.3l10.736-3.324a1.727,1.727,0,0,0,1.022-.857,1.668,1.668,0,0,0,.129-1.316Z" transform="matrix(0.999, 0.035, -0.035, 0.999, 207.842, 27.088)" fill="#8f999e"/>
      <path id="Path_9539" data-name="Path 9539" d="M4.939,2.179A2.467,2.467,0,1,1,4.014.528a2.479,2.479,0,0,1,.925,1.652Z" transform="matrix(0.999, 0.035, -0.035, 0.999, 265.671, 45.074)" fill="#8f999e"/>
      <path id="Path_9540" data-name="Path 9540" d="M4.939,2.181A2.467,2.467,0,1,1,4.01.525,2.478,2.478,0,0,1,4.939,2.181Z" transform="matrix(0.999, 0.035, -0.035, 0.999, 241.097, 53.405)" fill="#8f999e"/>
    </g>
    <g id="Group_3415" data-name="Group 3415" transform="translate(808.869 322.36)">
      <path id="Path_9543" data-name="Path 9543" d="M377.844,140.623h-.094a4.7,4.7,0,0,0-4.64-4.64v-.094a4.7,4.7,0,0,0,4.64-4.64h.094a4.7,4.7,0,0,0,4.64,4.64v.094A4.7,4.7,0,0,0,377.844,140.623Z" transform="translate(-130.709 -121.583)" fill="#113976"/>
      <path id="Path_9544" data-name="Path 9544" d="M222.284,157.741h-.094a4.7,4.7,0,0,0-4.64-4.7v-.094a4.7,4.7,0,0,0,4.64-4.7h.094a4.7,4.7,0,0,0,4.64,4.7v.094a4.7,4.7,0,0,0-4.64,4.7Z" transform="translate(-157.872 -118.615)" fill="#113976"/>
      <path id="Path_9545" data-name="Path 9545" d="M311.453,142.354h-.2a9.573,9.573,0,0,0-9.573-9.573v-.188a9.573,9.573,0,0,0,9.573-9.573h.2a9.561,9.561,0,0,0,9.561,9.573v.188a9.561,9.561,0,0,0-9.561,9.573Z" transform="translate(-143.181 -123.02)" fill="#113976"/>
      <path id="Path_9546" data-name="Path 9546" d="M7.118,14.072H6.965A6.965,6.965,0,0,0,0,7.106V6.965A6.965,6.965,0,0,0,6.965,0h.153a6.965,6.965,0,0,0,6.965,6.965v.141a6.965,6.965,0,0,0-6.965,6.965Z" transform="matrix(0.999, 0.035, -0.035, 0.999, 272.322, 55.377)" fill="#113976"/>
      <path id="Path_9547" data-name="Path 9547" d="M7.106,14.084H6.965A6.965,6.965,0,0,0,0,7.118V6.965A6.965,6.965,0,0,0,6.965,0h.141A6.954,6.954,0,0,0,9.143,4.929a6.954,6.954,0,0,0,4.929,2.037v.153a6.954,6.954,0,0,0-6.965,6.965Z" transform="matrix(0.999, 0.035, -0.035, 0.999, 0.492, 67.193)" fill="#113976"/>
    </g>
  </g>
</svg>
