<svg xmlns="http://www.w3.org/2000/svg" width="87.744" height="87.746" viewBox="0 0 87.744 87.746"><defs><style>.a{fill:#113976;}</style></defs><g transform="translate(0 0)"><path class="a" d="M10.862,118.719h9.3l-1.95,8.447a1.464,1.464,0,0,0,1.1,1.754,1.447,1.447,0,0,0,.329.036H37.188V126.03H34.263v-7.311H44.5v1.461H41.574a1.463,1.463,0,0,0-1.461,1.464v5.85a1.46,1.46,0,0,0,1.461,1.461H57.661a1.457,1.457,0,0,0,1.207-.636,9.09,9.09,0,0,0,3.361.636H83.984a7.321,7.321,0,0,0,7.315-7.311v-7.311H88.373v7.311a4.395,4.395,0,0,1-4.39,4.386H66.436v-5.85H81.058a1.458,1.458,0,0,0,1.054-.446,12.048,12.048,0,0,0,1.668-14.465l-2.518,1.489a9.123,9.123,0,0,1-.85,10.5H69.361V112.19l8.122-5.418a1.455,1.455,0,0,0,.654-1.214v-3.247l4.74-1.186a1.459,1.459,0,0,0,1.064-1.772,1.416,1.416,0,0,0-.2-.457L79.4,92.4h3.118a5.856,5.856,0,0,1,5.85,5.85v13.161H91.3V98.246a8.784,8.784,0,0,0-8.775-8.775h-5.85a1.463,1.463,0,0,1-1.461-1.464v-4.89a14.818,14.818,0,0,0,4.665-4.282A11.714,11.714,0,0,0,91.3,88.007a1.46,1.46,0,0,0,1.461-1.461V58.759a11.713,11.713,0,0,0-11.7-11.7h-.093A17.54,17.54,0,0,0,57.8,44.4l1.686,2.393A14.626,14.626,0,0,1,82.523,58.759v2.925h-.732L73.454,50.569a1.463,1.463,0,0,0-2.047-.293,1.541,1.541,0,0,0-.364.4l-.336.536A22.263,22.263,0,0,1,53.275,61.634V58.759a14.567,14.567,0,0,1,3.986-10.036l-2.125-2.007A17.484,17.484,0,0,0,50.35,58.759v2.925a4.395,4.395,0,0,0-4.39,4.386v4.39a4.393,4.393,0,0,0,2.982,4.154,14.449,14.449,0,0,0,6.925,11.1l1.039.625,1.507-2.507L57.371,83.2a11.523,11.523,0,0,1-5.465-8.358h2.039a14.715,14.715,0,0,0,6.64,8.272v4.89a1.463,1.463,0,0,1-1.461,1.464h-4.39V92.4h1.654l-4.332,6.5a1.463,1.463,0,0,0,.407,2.029,1.431,1.431,0,0,0,.454.2l4.743,1.186v3.247a1.46,1.46,0,0,0,.65,1.214l8.125,5.418v5.065H65.318l-.346-.171v-2.75H62.047v1.289l-1.036-.518a7.3,7.3,0,0,0-3.268-.771H55.214A9.143,9.143,0,0,1,56,106.758l-2.518-1.489a12.052,12.052,0,0,0-1.668,5.74V89.471a5.856,5.856,0,0,0-5.85-5.85h-35.1a5.855,5.855,0,0,0-5.847,5.85V92.4H7.937V89.471a2.929,2.929,0,0,1,2.925-2.925h35.1a2.927,2.927,0,0,1,2.925,2.925v23.4a2.929,2.929,0,0,1-2.925,2.925h-11.7v-7.311a1.466,1.466,0,0,0-1.464-1.464H24.027a1.467,1.467,0,0,0-1.429,1.136l-1.761,7.64H10.862a2.931,2.931,0,0,1-2.925-2.925V95.321H5.015v17.547A5.855,5.855,0,0,0,10.862,118.719Zm78.972-59.96V66.07a4.391,4.391,0,0,0-4.386-4.386V58.759a17.416,17.416,0,0,0-2.2-8.5A8.784,8.784,0,0,1,89.834,58.759Zm-7.311,11.7v-5.85h2.925a1.46,1.46,0,0,1,1.461,1.461v4.39a1.46,1.46,0,0,1-1.461,1.461H82.523Zm0,4.386h2.925a4.391,4.391,0,0,0,4.386-4.386v14.5a8.785,8.785,0,0,1-7.311-8.65ZM53.275,70.459V71.92H50.35a1.466,1.466,0,0,1-1.464-1.461V66.07a1.466,1.466,0,0,1,1.464-1.461h2.925Zm23.68,23.53,3.2,4.8-3.836.957a1.466,1.466,0,0,0-1.107,1.418v3.607l-4.032,2.686ZM56.2,70.459V64.22A25.185,25.185,0,0,0,72.369,53.994l7.229,9.64v6.825a11.7,11.7,0,0,1-23.4,0Zm4.386,34.316v-3.607a1.466,1.466,0,0,0-1.107-1.418l-3.836-.957,3.2-4.8,5.772,13.472Zm.546-12.869a4.388,4.388,0,0,0,2.379-3.9v-3.6a14.653,14.653,0,0,0,8.775,0v3.6a4.388,4.388,0,0,0,2.379,3.9L67.9,107.693ZM51.81,112.869v-1.05a12.11,12.11,0,0,0,.471,2.943,7.464,7.464,0,0,0-.946.418A5.83,5.83,0,0,0,51.81,112.869Zm2.539,4.4c.129-.011,3.393-.018,3.393-.018a4.435,4.435,0,0,1,1.961.464l3.807,1.9v6.407H62.229a6.187,6.187,0,0,1-3.1-.829v-3.557a1.466,1.466,0,0,0-1.464-1.464H50.6A4.418,4.418,0,0,1,54.35,117.272Zm-6.925,1.261a5.657,5.657,0,0,0,.857-.3,7.289,7.289,0,0,0-.707,1.943h-.15Zm1.461,4.572H56.2v2.925H43.039V123.1Zm-23.7-13.161h6.15V126.03H21.477Zm38.324-44.6a2.193,2.193,0,1,1-2.193-2.2A2.193,2.193,0,0,1,63.511,65.341Zm8.775,0a2.193,2.193,0,1,1,2.193,2.193A2.194,2.194,0,0,1,72.287,65.341ZM67.9,76.31a4.395,4.395,0,0,1-4.386-4.39h2.925a1.463,1.463,0,1,0,2.925,0h2.925A4.4,4.4,0,0,1,67.9,76.31ZM59.2,55.712,56.6,54.38a14.914,14.914,0,0,1,12.458-7.565l.111,2.925A11.976,11.976,0,0,0,59.2,55.712ZM18.176,89.471V92.4h-5.85V89.471ZM26.948,92.4H21.1V89.471h5.847Zm8.775,0h-5.85V89.471h5.85ZM44.5,89.471V92.4h-5.85V89.471Z" transform="translate(-5.015 -41.21)"/></g></svg>