<svg xmlns="http://www.w3.org/2000/svg" width="24.189" height="24.189" viewBox="0 0 24.189 24.189"><defs><style>.a{fill:#fff;opacity:0.87;}</style></defs><g transform="translate(-382.639 -1375.304)"><ellipse class="a" cx="12.095" cy="12.095" rx="12.095" ry="12.095" transform="translate(382.639 1375.304)"/><g transform="translate(391.753 1393.701) rotate(-90)"><g transform="translate(0 0)"><path d="M12.219,6.982a.528.528,0,0,1-.407-.175L6.4,1.4.989,6.807a.562.562,0,0,1-.815,0,.562.562,0,0,1,0-.815L5.993.175a.562.562,0,0,1,.815,0l5.818,5.818a.562.562,0,0,1,0,.815A.528.528,0,0,1,12.219,6.982Z"/></g></g></g></svg>