<svg xmlns="http://www.w3.org/2000/svg" width="34.975" height="35.022" viewBox="0 0 34.975 35.022">
  <g id="Group_3649" data-name="Group 3649" transform="translate(-958.141 -2708.978)">
    <g id="Group_3646" data-name="Group 3646" transform="translate(958.141 2708.978)">
      <path id="Path_98" data-name="Path 98" d="M4358.712,1844.325l-.933.135a.986.986,0,0,0-.827,1.16l.176.926a.985.985,0,0,1-1.074,1.164l-.937-.1a.986.986,0,0,0-1.09.917l-.06.94a.985.985,0,0,1-1.33.86l-.882-.331a.986.986,0,0,0-1.283.618l-.292.9a.985.985,0,0,1-1.5.5l-.772-.54a.985.985,0,0,0-1.4.279l-.505.8a.985.985,0,0,1-1.58.113l-.613-.715a.985.985,0,0,0-1.422-.077l-.687.645a.985.985,0,0,1-1.558-.283l-.416-.845a.986.986,0,0,0-1.358-.428l-.826.454a.985.985,0,0,1-1.438-.662l-.193-.922a.986.986,0,0,0-1.209-.753l-.913.234a.985.985,0,0,1-1.229-1l.042-.941a.985.985,0,0,0-.984-1.03h-.942a.986.986,0,0,1-.942-1.273l.275-.9a.985.985,0,0,0-.7-1.242l-.912-.235a.986.986,0,0,1-.6-1.467l.491-.8a.986.986,0,0,0-.366-1.376l-.826-.454a.986.986,0,0,1-.212-1.569l.675-.657a.985.985,0,0,0-.013-1.424l-.686-.645a.985.985,0,0,1,.185-1.573l.817-.469a.985.985,0,0,0,.342-1.382l-.5-.8a.986.986,0,0,1,.57-1.477l.908-.25a.985.985,0,0,0,.675-1.254l-.291-.9a.986.986,0,0,1,.92-1.289l.942-.017a.985.985,0,0,0,.966-1.047l-.059-.94a.985.985,0,0,1,1.211-1.02l.917.218a.986.986,0,0,0,1.2-.774l.177-.925a.985.985,0,0,1,1.427-.687l.833.439a.985.985,0,0,0,1.351-.452l.4-.852a.985.985,0,0,1,1.553-.31l.7.633a.985.985,0,0,0,1.42-.1l.6-.726a.985.985,0,0,1,1.581.086l.519.786a.986.986,0,0,0,1.4.255l.763-.553a.985.985,0,0,1,1.51.476l.307.891a.985.985,0,0,0,1.294.595l.876-.346a.986.986,0,0,1,1.345.837l.076.939a.986.986,0,0,0,1.105.9l.935-.118a.985.985,0,0,1,1.094,1.145l-.16.929a.985.985,0,0,0,.847,1.145l.935.119a.985.985,0,0,1,.775,1.381l-.386.86a.985.985,0,0,0,.535,1.32l.876.347a.986.986,0,0,1,.407,1.53l-.588.737a.985.985,0,0,0,.191,1.411l.762.554a.985.985,0,0,1,.014,1.583l-.752.567a.986.986,0,0,0-.166,1.414l.6.726a.985.985,0,0,1-.38,1.537l-.87.362a.985.985,0,0,0-.513,1.329l.4.853A.985.985,0,0,1,4358.712,1844.325Z" transform="translate(-4326.561 -1817.979)" fill="#2fcd72"/>
    </g>
    <g id="Group_3647" data-name="Group 3647" transform="translate(967.727 2720.388)">
      <path id="Path_99" data-name="Path 99" d="M4467.466,1991.425l-5.876-5.873,1.857-1.858,3.961,3.959,8.422-8.953,1.914,1.8Z" transform="translate(-4461.59 -1978.7)" fill="#fff"/>
    </g>
  </g>
</svg>
