<svg xmlns="http://www.w3.org/2000/svg" width="21.677" height="18.931" viewBox="0 0 21.677 18.931">
  <g id="Group_3570" data-name="Group 3570" transform="translate(-1604.1 -730.102)">
    <path id="Path_9591" data-name="Path 9591" d="M143.115,164.131a1.157,1.157,0,0,1-.78-.309l-.057-.049-2.169-3.632a.731.731,0,0,0-.463-.162H124.818a2.221,2.221,0,0,1-2.218-2.218V147.418a2.221,2.221,0,0,1,2.218-2.218h17.241a2.221,2.221,0,0,1,2.218,2.218v15.559a1.146,1.146,0,0,1-.691,1.056A1.224,1.224,0,0,1,143.115,164.131Zm-.041-1.032a.133.133,0,0,0,.1,0,.131.131,0,0,0,.081-.122V147.418a1.2,1.2,0,0,0-1.194-1.194H124.818a1.2,1.2,0,0,0-1.194,1.194v10.351a1.2,1.2,0,0,0,1.194,1.194h14.836a1.775,1.775,0,0,1,1.2.471l.057.049Z" transform="translate(1481.5 584.902)" fill="#fff"/>
    <path id="Path_9592" data-name="Path 9592" d="M184.216,191.424h-12.8a.51.51,0,0,1-.512-.512h0a.51.51,0,0,1,.512-.512h12.8a.51.51,0,0,1,.512.512h0A.51.51,0,0,1,184.216,191.424Z" transform="translate(1437.124 543.374)" fill="#fff"/>
    <path id="Path_9593" data-name="Path 9593" d="M184.216,232.724h-12.8a.51.51,0,0,1-.512-.512h0a.51.51,0,0,1,.512-.512h12.8a.51.51,0,0,1,.512.512h0A.51.51,0,0,1,184.216,232.724Z" transform="translate(1437.124 505.43)" fill="#fff"/>
    <path id="Path_9594" data-name="Path 9594" d="M180.284,274.024h-8.872a.51.51,0,0,1-.512-.512h0a.51.51,0,0,1,.512-.512h8.872a.51.51,0,0,1,.512.512h0A.51.51,0,0,1,180.284,274.024Z" transform="translate(1437.124 467.485)" fill="#fff"/>
  </g>
</svg>
