<svg xmlns="http://www.w3.org/2000/svg" xmlns:xlink="http://www.w3.org/1999/xlink" width="461.1" height="292.081" viewBox="0 0 461.1 292.081">
  <defs>
    <linearGradient id="linear-gradient" x1="-1917.705" y1="-2094.458" x2="-1917.664" y2="-2093.861" gradientUnits="objectBoundingBox">
      <stop offset="0" stop-color="#ff4ad1"/>
      <stop offset="0.01" stop-color="#ff4dd3"/>
      <stop offset="0.03" stop-color="#ff57d9"/>
      <stop offset="0.04" stop-color="#ff67e2"/>
      <stop offset="0.05" stop-color="#ff7ef0"/>
      <stop offset="0.05" stop-color="#ff8bf7"/>
      <stop offset="0.15" stop-color="#ff4ad1"/>
      <stop offset="0.5" stop-color="#ff8bf7"/>
      <stop offset="0.85" stop-color="#ff30c2"/>
      <stop offset="0.95" stop-color="#ff8bf7"/>
      <stop offset="1" stop-color="#ff2abe"/>
    </linearGradient>
    <linearGradient id="linear-gradient-2" x1="-1810.436" y1="-1969.402" x2="-1810.193" y2="-1970.337" gradientUnits="objectBoundingBox">
      <stop offset="0" stop-color="#0080ff"/>
      <stop offset="0.01" stop-color="#0283ff"/>
      <stop offset="0.02" stop-color="#078dff"/>
      <stop offset="0.03" stop-color="#109dff"/>
      <stop offset="0.04" stop-color="#1db4ff"/>
      <stop offset="0.05" stop-color="#2bcfff"/>
      <stop offset="0.15" stop-color="#0080ff"/>
      <stop offset="0.5" stop-color="#26ccff"/>
      <stop offset="0.85" stop-color="#0074ea"/>
      <stop offset="0.95" stop-color="#06bcff"/>
      <stop offset="1" stop-color="#0072e8"/>
    </linearGradient>
    <linearGradient id="linear-gradient-3" x1="-1893.934" y1="-2165.186" x2="-1893.792" y2="-2165.757" xlink:href="#linear-gradient-2"/>
    <linearGradient id="linear-gradient-4" x1="-1857.169" y1="-2037.29" x2="-1857.045" y2="-2036.571" xlink:href="#linear-gradient-2"/>
    <linearGradient id="linear-gradient-5" x1="-349.693" y1="-424.191" x2="-349.717" y2="-423.489" xlink:href="#linear-gradient-2"/>
    <linearGradient id="linear-gradient-6" x1="-612.458" y1="-504.208" x2="-612.323" y2="-506.37" gradientUnits="objectBoundingBox">
      <stop offset="0" stop-color="#d4082d"/>
      <stop offset="0.02" stop-color="#d7082e"/>
      <stop offset="0.03" stop-color="#e1082f"/>
      <stop offset="0.04" stop-color="#f10832"/>
      <stop offset="0.05" stop-color="#ff0835"/>
      <stop offset="0.15" stop-color="#d4082d"/>
      <stop offset="0.5" stop-color="#ff0835"/>
      <stop offset="0.85" stop-color="#b50827"/>
      <stop offset="0.95" stop-color="#ff0835"/>
      <stop offset="1" stop-color="#af0826"/>
    </linearGradient>
    <linearGradient id="linear-gradient-7" x1="-1339.374" y1="-487.65" x2="-1338.32" y2="-489.701" gradientUnits="objectBoundingBox">
      <stop offset="0" stop-color="orange"/>
      <stop offset="0.02" stop-color="#ffa801"/>
      <stop offset="0.03" stop-color="#ffb203"/>
      <stop offset="0.04" stop-color="#ffc206"/>
      <stop offset="0.05" stop-color="#ffcc08"/>
      <stop offset="0.15" stop-color="orange"/>
      <stop offset="0.5" stop-color="#ffcc08"/>
      <stop offset="0.85" stop-color="#ff9100"/>
      <stop offset="0.95" stop-color="#ffcc08"/>
      <stop offset="1" stop-color="#ff8e00"/>
    </linearGradient>
    <linearGradient id="linear-gradient-8" x1="-275.139" y1="-1219.385" x2="-273.743" y2="-1222.417" xlink:href="#linear-gradient"/>
    <linearGradient id="linear-gradient-9" x1="-453.674" y1="-812.88" x2="-453.755" y2="-810.981" xlink:href="#linear-gradient"/>
    <linearGradient id="linear-gradient-10" x1="-948.611" y1="-395.681" x2="-947.753" y2="-397.797" xlink:href="#linear-gradient-7"/>
    <linearGradient id="linear-gradient-11" x1="-1313.083" y1="-933.811" x2="-1312.683" y2="-935.461" gradientUnits="objectBoundingBox">
      <stop offset="0" stop-color="#00b102"/>
      <stop offset="0.01" stop-color="#00b402"/>
      <stop offset="0.03" stop-color="#00be03"/>
      <stop offset="0.04" stop-color="#00ce05"/>
      <stop offset="0.05" stop-color="#00e507"/>
      <stop offset="0.05" stop-color="#00f008"/>
      <stop offset="0.15" stop-color="#00b102"/>
      <stop offset="0.5" stop-color="#00f008"/>
      <stop offset="0.85" stop-color="#009700"/>
      <stop offset="0.95" stop-color="#00f008"/>
      <stop offset="1" stop-color="#009200"/>
    </linearGradient>
    <linearGradient id="linear-gradient-12" x1="-771.312" y1="-386.852" x2="-771.361" y2="-385.861" xlink:href="#linear-gradient-2"/>
    <linearGradient id="linear-gradient-13" x1="-1489.956" y1="-533.676" x2="-1488.949" y2="-534.826" xlink:href="#linear-gradient-2"/>
    <linearGradient id="linear-gradient-14" x1="-548.687" y1="-539.719" x2="-548.646" y2="-541.093" xlink:href="#linear-gradient-7"/>
    <linearGradient id="linear-gradient-15" x1="-570.598" y1="-1647.585" x2="-570.514" y2="-1649.208" xlink:href="#linear-gradient"/>
    <linearGradient id="linear-gradient-16" x1="-435.534" y1="-413.956" x2="-434.89" y2="-413.633" xlink:href="#linear-gradient-7"/>
    <linearGradient id="linear-gradient-17" x1="-767.311" y1="-617.556" x2="-766.162" y2="-619.246" xlink:href="#linear-gradient-7"/>
    <linearGradient id="linear-gradient-18" x1="-994.882" y1="-390.172" x2="-992.389" y2="-389.293" xlink:href="#linear-gradient-11"/>
    <linearGradient id="linear-gradient-19" x1="-462.78" y1="-1271.16" x2="-462.17" y2="-1272.643" xlink:href="#linear-gradient-11"/>
    <linearGradient id="linear-gradient-20" x1="-912.992" y1="-116.383" x2="-912.896" y2="-119.157" xlink:href="#linear-gradient-7"/>
    <linearGradient id="linear-gradient-21" x1="-523.047" y1="-2659.164" x2="-523.097" y2="-2656.119" xlink:href="#linear-gradient-7"/>
    <linearGradient id="linear-gradient-22" x1="-1909.76" y1="428.584" x2="-1907.437" y2="430.601" xlink:href="#linear-gradient-2"/>
    <linearGradient id="linear-gradient-23" x1="-526.447" y1="-396.154" x2="-525.607" y2="-395.838" xlink:href="#linear-gradient-2"/>
    <linearGradient id="linear-gradient-24" x1="-854.69" y1="-2490.714" x2="-853.12" y2="-2492.644" xlink:href="#linear-gradient-7"/>
    <linearGradient id="linear-gradient-25" x1="-1313.27" y1="-316.319" x2="-1312.545" y2="-318.645" xlink:href="#linear-gradient"/>
    <linearGradient id="linear-gradient-26" x1="-578.23" y1="-2528.982" x2="-578.183" y2="-2531.316" xlink:href="#linear-gradient-2"/>
    <linearGradient id="linear-gradient-27" x1="-667.079" y1="-1188.318" x2="-667.01" y2="-1187.31" xlink:href="#linear-gradient-7"/>
    <linearGradient id="linear-gradient-28" x1="-10798.96" y1="-2599.91" x2="-10793.112" y2="-2598.568" xlink:href="#linear-gradient-7"/>
    <linearGradient id="linear-gradient-29" x1="-233.851" y1="-1181.191" x2="-233.311" y2="-1183.569" xlink:href="#linear-gradient-2"/>
    <linearGradient id="linear-gradient-30" x1="-1382.128" y1="-2175.489" x2="-1381.337" y2="-2178.087" xlink:href="#linear-gradient-6"/>
    <linearGradient id="linear-gradient-31" x1="-478.547" y1="-1120.561" x2="-478.44" y2="-1121.932" xlink:href="#linear-gradient-2"/>
    <linearGradient id="linear-gradient-32" x1="-753.859" y1="-760.313" x2="-753.591" y2="-761.82" xlink:href="#linear-gradient"/>
    <linearGradient id="linear-gradient-33" x1="-2679.662" y1="-1013.094" x2="-2677.27" y2="-1012.613" xlink:href="#linear-gradient-11"/>
    <linearGradient id="linear-gradient-34" x1="-2149.313" y1="-200.062" x2="-2148.81" y2="-198.05" xlink:href="#linear-gradient"/>
    <linearGradient id="linear-gradient-35" x1="-274.257" y1="-3740.136" x2="-272.99" y2="-3744.712" xlink:href="#linear-gradient-11"/>
    <linearGradient id="linear-gradient-36" x1="-1169.917" y1="-360.34" x2="-1167.893" y2="-359.333" xlink:href="#linear-gradient"/>
    <linearGradient id="linear-gradient-37" x1="-845.815" y1="-403.846" x2="-845.87" y2="-402.788" xlink:href="#linear-gradient-11"/>
    <linearGradient id="linear-gradient-38" x1="-250.78" y1="-1016.417" x2="-249.987" y2="-1018.93" xlink:href="#linear-gradient-7"/>
    <linearGradient id="linear-gradient-39" x1="-470.207" y1="-511.596" x2="-469.883" y2="-512.625" xlink:href="#linear-gradient-2"/>
    <linearGradient id="linear-gradient-40" x1="371.685" y1="-574.887" x2="372.525" y2="-571.114" xlink:href="#linear-gradient"/>
    <linearGradient id="linear-gradient-41" x1="-498.78" y1="-876.866" x2="-498.016" y2="-878.441" xlink:href="#linear-gradient-2"/>
    <linearGradient id="linear-gradient-42" x1="-523.513" y1="-600.874" x2="-523.477" y2="-602.307" xlink:href="#linear-gradient-6"/>
    <linearGradient id="linear-gradient-43" x1="-3595.091" y1="-1790.77" x2="-3594.933" y2="-1792.429" xlink:href="#linear-gradient-11"/>
    <linearGradient id="linear-gradient-44" x1="-448.95" y1="-1372.712" x2="-446.278" y2="-1371.966" xlink:href="#linear-gradient-7"/>
    <linearGradient id="linear-gradient-45" x1="-1177.683" y1="-442.596" x2="-1177.377" y2="-441.635" xlink:href="#linear-gradient"/>
    <linearGradient id="linear-gradient-46" x1="-6318.708" y1="-5708.877" x2="-6316.938" y2="-5713.277" xlink:href="#linear-gradient"/>
    <linearGradient id="linear-gradient-47" x1="-468.488" y1="-722.678" x2="-468.513" y2="-721.827" xlink:href="#linear-gradient-2"/>
    <linearGradient id="linear-gradient-48" x1="-408.749" y1="-900.226" x2="-408.532" y2="-901.467" xlink:href="#linear-gradient-7"/>
    <linearGradient id="linear-gradient-49" x1="-1553.929" y1="-2009.068" x2="-1552.168" y2="-2010.576" xlink:href="#linear-gradient"/>
    <linearGradient id="linear-gradient-50" x1="-673.427" y1="-1244.385" x2="-673.465" y2="-1243.062" xlink:href="#linear-gradient-7"/>
    <linearGradient id="linear-gradient-51" x1="-615.97" y1="-477.272" x2="-615.905" y2="-476.768" xlink:href="#linear-gradient-6"/>
    <linearGradient id="linear-gradient-52" x1="-980.294" y1="-574.542" x2="-978.31" y2="-573.475" xlink:href="#linear-gradient-7"/>
    <linearGradient id="linear-gradient-53" x1="-556.443" y1="-811.982" x2="-556.184" y2="-813.038" xlink:href="#linear-gradient-7"/>
    <linearGradient id="linear-gradient-54" x1="-544.973" y1="-1289.682" x2="-543.658" y2="-1289.075" xlink:href="#linear-gradient"/>
    <linearGradient id="linear-gradient-55" x1="-584.272" y1="-1382.37" x2="-584.236" y2="-1383.697" xlink:href="#linear-gradient-11"/>
    <linearGradient id="linear-gradient-56" x1="-794.005" y1="-599.57" x2="-791.589" y2="-598.963" xlink:href="#linear-gradient-7"/>
    <linearGradient id="linear-gradient-57" x1="-636.262" y1="-605.188" x2="-636.193" y2="-604.581" xlink:href="#linear-gradient-6"/>
    <linearGradient id="linear-gradient-58" x1="-441.149" y1="-567.047" x2="-441.171" y2="-566.354" xlink:href="#linear-gradient-6"/>
    <linearGradient id="linear-gradient-59" x1="-591.141" y1="-355.134" x2="-590.094" y2="-354.89" xlink:href="#linear-gradient-6"/>
  </defs>
  <g id="Group_3449" data-name="Group 3449" transform="translate(-713 -233.468)">
    <g id="Group_3330" data-name="Group 3330" transform="translate(-15141 -988.532)" opacity="0.61">
      <path id="Path_6324" data-name="Path 6324" d="M59.3,285.9a1.59,1.59,0,1,0,.459-1.146A1.59,1.59,0,0,0,59.3,285.9Z" transform="translate(15860.452 1215.453)" fill="url(#linear-gradient)"/>
      <path id="Path_6326" data-name="Path 6326" d="M45.35,279.1a1.59,1.59,0,1,0,1.552-1.59A1.59,1.59,0,0,0,45.35,279.1Z" transform="translate(15861.278 1215.854)" fill="url(#linear-gradient-2)"/>
      <path id="Path_6328" data-name="Path 6328" d="M118.39,283.97a1.58,1.58,0,1,0,.46-1.124,1.59,1.59,0,0,0-.46,1.124Z" transform="translate(15861.911 1215.566)" fill="url(#linear-gradient-3)"/>
      <path id="Path_6329" data-name="Path 6329" d="M64.77,264.73a1.59,1.59,0,1,0,1.59-1.59,1.59,1.59,0,0,0-1.59,1.59Z" transform="translate(15860.128 1216.705)" fill="url(#linear-gradient-4)"/>
      <path id="Path_6334" data-name="Path 6334" d="M401.818,63.964l-5.711-4.7S390.679,67.483,385.57,71.8l5.7,4.7C396.38,72.187,401.818,63.964,401.818,63.964Z" transform="translate(15859.11 1228.775)" fill="url(#linear-gradient-5)"/>
      <path id="Path_6336" data-name="Path 6336" d="M213.6,43.985l-1.75-.235s2.249.32,2,4.7l1.75.235C215.839,44.314,213.6,43.985,213.6,43.985Z" transform="translate(15859.982 1229.693)" fill="url(#linear-gradient-6)"/>
      <path id="Path_6337" data-name="Path 6337" d="M150.971-3.911l-2.9-.489a12.55,12.55,0,0,0-.094,6.1l2.9.48a12.5,12.5,0,0,1,.094-6.087Z" transform="translate(15861.306 1232.543)" fill="url(#linear-gradient-7)"/>
      <path id="Path_6339" data-name="Path 6339" d="M290.374,51.72c-.941,0-1.345.329-2.145,1.195a2.879,2.879,0,0,1-1.6.941l1.016,1.11a2.879,2.879,0,0,0,1.609-.941c.8-.866,1.214-1.185,2.145-1.195Z" transform="translate(15858.459 1229.221)" fill="url(#linear-gradient-8)"/>
      <path id="Path_6340" data-name="Path 6340" d="M335.153,25.982l-2.4-1.082a26.343,26.343,0,0,1-2.474,5.287l2.4,1.082a26.064,26.064,0,0,0,2.474-5.287Z" transform="translate(15857.562 1230.809)" fill="url(#linear-gradient-9)"/>
      <path id="Path_6343" data-name="Path 6343" d="M167.144,36.11l-2.023-.31s1.882,1.684-1.091,5.588l2.032.31C169.007,37.794,167.144,36.11,167.144,36.11Z" transform="translate(15860.972 1230.164)" fill="url(#linear-gradient-10)"/>
      <path id="Path_6344" data-name="Path 6344" d="M20.59,232.247l1.637,3.679a17.217,17.217,0,0,0,7.056-4.5l-1.637-3.679A17.217,17.217,0,0,1,20.59,232.247Z" transform="translate(15862.744 1218.8)" fill="url(#linear-gradient-11)"/>
      <path id="Path_6346" data-name="Path 6346" d="M89.379,52.2,84.6,53.781s2.747,6.115,3.387,10.631l4.779-1.581C92.126,58.306,89.379,52.2,89.379,52.2Z" transform="translate(15862.654 1229.193)" fill="url(#linear-gradient-12)"/>
      <path id="Path_6348" data-name="Path 6348" d="M14.89,189.867c.207,1.7.894,2.4,2.662,3.688a5.353,5.353,0,0,1,2.145,2.766l1.825-2.117a5.353,5.353,0,0,0-2.117-2.747c-1.769-1.289-2.455-1.985-2.662-3.7Z" transform="translate(15863.081 1221.167)" fill="url(#linear-gradient-13)"/>
      <path id="Path_6349" data-name="Path 6349" d="M43.682,85.245,40.37,86.882s4.281-2.06,9.032,5.9l3.312-1.628C47.962,83.185,43.682,85.245,43.682,85.245Z" transform="translate(15861.572 1227.25)" fill="url(#linear-gradient-14)"/>
      <path id="Path_6351" data-name="Path 6351" d="M451.618,182.146l-.179-2.446s.2,3.152-5.9,4.092l.179,2.456C451.853,185.307,451.618,182.146,451.618,182.146Z" transform="translate(15855.56 1221.645)" fill="url(#linear-gradient-15)"/>
      <path id="Path_6352" data-name="Path 6352" d="M29.1,43Z" transform="translate(15862.24 1229.737)" fill="#fff"/>
      <path id="Path_6353" data-name="Path 6353" d="M34.077,50.62A11.224,11.224,0,0,1,29.1,43l.461,4.7a11.167,11.167,0,0,0,5,7.649c4.629,3.152,10.631-.122,10.631-.122l-.47-4.7S38.715,53.791,34.077,50.62Z" transform="translate(15862.24 1229.737)" fill="url(#linear-gradient-16)"/>
      <path id="Path_6359" data-name="Path 6359" d="M169.758,63.2c-1.232.5-1.618,1.157-2.22,2.738a4.177,4.177,0,0,1-1.628,2.145l1.957.941a4.177,4.177,0,0,0,1.628-2.136c.6-1.59.941-2.249,2.22-2.747Z" transform="translate(15860.965 1228.541)" fill="url(#linear-gradient-17)"/>
      <path id="Path_6360" data-name="Path 6360" d="M128.06,43.39Z" transform="translate(15861.673 1229.714)" fill="#fff"/>
      <path id="Path_6361" data-name="Path 6361" d="M128.812,46.024a3.377,3.377,0,0,1-.771-2.634l-.273,1.383a3.387,3.387,0,0,0,.762,2.653,3.436,3.436,0,0,0,3.076.941l.282-1.4A3.462,3.462,0,0,1,128.812,46.024Z" transform="translate(15861.729 1229.714)" fill="url(#linear-gradient-18)"/>
      <path id="Path_6363" data-name="Path 6363" d="M415.9,149.287c-1.722-1.656-3.076-1.806-6.115-1.646a7.432,7.432,0,0,1-4.7-1.1l-.113,3.885a7.526,7.526,0,0,0,4.7,1.1c3.039-.16,4.394,0,6.106,1.646Z" transform="translate(15857.962 1223.608)" fill="url(#linear-gradient-19)"/>
      <path id="Path_6364" data-name="Path 6364" d="M91.9,102.2l-1.609.517s2.079-.64,3.679,3.293l1.609-.517C94,101.558,91.9,102.2,91.9,102.2Z" transform="translate(15862.514 1226.235)" fill="url(#linear-gradient-20)"/>
      <path id="Path_6365" data-name="Path 6365" d="M400.838,194.635l-.292-3.415a33.463,33.463,0,0,1-7.526.546l.282,3.415A34.124,34.124,0,0,0,400.838,194.635Z" transform="translate(15858.668 1220.963)" fill="url(#linear-gradient-21)"/>
      <path id="Path_6366" data-name="Path 6366" d="M15.86,146.9Z" transform="translate(15863.023 1223.586)" fill="#fff"/>
      <path id="Path_6367" data-name="Path 6367" d="M17.553,148.114A2.568,2.568,0,0,1,15.86,146.9l.489.941a2.559,2.559,0,0,0,1.693,1.232,2.587,2.587,0,0,0,2.277-.894l-.489-.941A2.578,2.578,0,0,1,17.553,148.114Z" transform="translate(15863.023 1223.586)" fill="url(#linear-gradient-22)"/>
      <path id="Path_6368" data-name="Path 6368" d="M94.984-3.469a9.775,9.775,0,0,1-2.7-7.461l-.546,4.055A9.737,9.737,0,0,0,94.429.651c3.293,3.631,9.05,2.1,9.05,2.1l.555-4.1S98.277.181,94.984-3.469Z" transform="translate(15862.549 1232.93)" fill="url(#linear-gradient-23)"/>
      <path id="Path_6369" data-name="Path 6369" d="M429.453,214.825c-.207-1.035-.659-1.43-1.8-2.145a3.293,3.293,0,0,1-1.421-1.59l-1.026,1.383a3.331,3.331,0,0,0,1.421,1.59c1.138.715,1.59,1.11,1.8,2.145Z" transform="translate(15856.763 1219.786)" fill="url(#linear-gradient-24)"/>
      <path id="Path_6370" data-name="Path 6370" d="M3.9,18.67l-2.6.7a11.534,11.534,0,0,0,2.22,5.109l2.6-.7A11.365,11.365,0,0,1,3.9,18.67Z" transform="translate(15863.886 1231.178)" fill="url(#linear-gradient-25)"/>
      <path id="Path_6371" data-name="Path 6371" d="M439.26,253.372l1.449-2.822s-1.882,3.6-9.22.546l-1.449,2.822C437.369,256.966,439.26,253.372,439.26,253.372Z" transform="translate(15856.478 1217.45)" fill="url(#linear-gradient-26)"/>
      <path id="Path_6373" data-name="Path 6373" d="M455.411,214.841l.367-4.431a11.1,11.1,0,0,0-8.4,4.074l-.367,4.422a11.054,11.054,0,0,1,8.4-4.064Z" transform="translate(15855.473 1219.827)" fill="url(#linear-gradient-27)"/>
      <path id="Path_6374" data-name="Path 6374" d="M65,217.75Z" transform="translate(15860.115 1219.392)" fill="#fff"/>
      <path id="Path_6375" data-name="Path 6375" d="M65.991,216.31a1.938,1.938,0,0,1-.941,1.232l.743-.329a1.788,1.788,0,0,0,.4-2.973l-.753.329a1.938,1.938,0,0,1,.546,1.741Z" transform="translate(15860.112 1219.6)" fill="url(#linear-gradient-28)"/>
      <path id="Path_6376" data-name="Path 6376" d="M395.772,39.322l-1.392-1.552s.376,2.521-4.459,3.7l1.392,1.552C396.148,41.844,395.772,39.322,395.772,39.322Z" transform="translate(15858.853 1230.047)" fill="url(#linear-gradient-29)"/>
      <path id="Path_6377" data-name="Path 6377" d="M37.327,248.887c1.5.668,2.4.452,4.318-.367a5.109,5.109,0,0,1,3.283-.376l-.837-2.531a5.109,5.109,0,0,0-3.283.376c-1.882.818-2.822,1.035-4.318.367Z" transform="translate(15861.803 1217.75)" fill="url(#linear-gradient-30)"/>
      <path id="Path_6379" data-name="Path 6379" d="M454.972,111.233l-1.091-2.023s1.383,2.625-3.481,5.758L451.491,117C456.355,113.858,454.972,111.233,454.972,111.233Z" transform="translate(15855.271 1225.818)" fill="url(#linear-gradient-31)"/>
      <path id="Path_6382" data-name="Path 6382" d="M-10.59,218.488l.4,6.209a26.615,26.615,0,0,0,12.616-2.728l-.4-6.209a26.653,26.653,0,0,1-12.626,2.728Z" transform="translate(15864.59 1219.51)" fill="url(#linear-gradient-32)"/>
      <path id="Path_6385" data-name="Path 6385" d="M63.65,286.6Z" transform="translate(15860.194 1215.316)" fill="#fff"/>
      <path id="Path_6386" data-name="Path 6386" d="M65.211,282.219a5.118,5.118,0,0,1-1.628,3.763l1.646-1.345a5.071,5.071,0,0,0,1.656-3.82c0-2.559-2.691-4.017-2.691-4.017l-1.675,1.364S65.258,279.66,65.211,282.219Z" transform="translate(15860.262 1215.896)" fill="url(#linear-gradient-33)"/>
      <path id="Path_6388" data-name="Path 6388" d="M68.77,167.56l-1.11,1.279a4.968,4.968,0,0,1,2.2,3.556l1.11-1.279a4.967,4.967,0,0,0-2.2-3.556Z" transform="translate(15859.958 1222.363)" fill="url(#linear-gradient-34)"/>
      <path id="Path_6391" data-name="Path 6391" d="M450.357,83.662c-.894-.574-1.5-.527-2.822-.188a3.311,3.311,0,0,1-2.154-.075l.292,1.712a3.311,3.311,0,0,0,2.154.075c1.317-.339,1.882-.386,2.822.188Z" transform="translate(15855.569 1227.356)" fill="url(#linear-gradient-35)"/>
      <path id="Path_6394" data-name="Path 6394" d="M75.48,126.8Z" transform="translate(15859.495 1224.776)" fill="#fff"/>
      <path id="Path_6395" data-name="Path 6395" d="M77.07,129.218a3.566,3.566,0,0,1-1.59-2.418l.151,1.486a3.547,3.547,0,0,0,1.581,2.465,3.623,3.623,0,0,0,3.387,0l-.151-1.5A3.654,3.654,0,0,1,77.07,129.218Z" transform="translate(15859.495 1224.776)" fill="url(#linear-gradient-36)"/>
      <path id="Path_6396" data-name="Path 6396" d="M100.711,20.58,96.12,21.794a46.7,46.7,0,0,1,2.55,10.217l4.591-1.214A49.992,49.992,0,0,0,100.711,20.58Z" transform="translate(15862.411 1231.065)" fill="url(#linear-gradient-37)"/>
      <path id="Path_6397" data-name="Path 6397" d="M360.542,43.159l-1.59-1.609a9.634,9.634,0,0,0-2.822,3.763l1.581,1.609a9.7,9.7,0,0,1,2.832-3.763Z" transform="translate(15857.014 1229.823)" fill="url(#linear-gradient-38)"/>
      <path id="Path_6398" data-name="Path 6398" d="M380.02,15.441l-3.867-3.961a23.7,23.7,0,0,0-6.934,9.163l3.867,3.961a23.7,23.7,0,0,1,6.934-9.163Z" transform="translate(15860.078 1231.603)" fill="url(#linear-gradient-39)"/>
      <path id="Path_6400" data-name="Path 6400" d="M245.667,96h-1.1a3.218,3.218,0,0,1-.847,2.578h1.1A3.227,3.227,0,0,0,245.667,96Z" transform="translate(15859.282 1226.6)" fill="url(#linear-gradient-40)"/>
      <path id="Path_6402" data-name="Path 6402" d="M272.386,63c-1.712.085-2.455.724-3.857,2.4a5.316,5.316,0,0,1-2.879,1.882l1.995,1.966a5.41,5.41,0,0,0,2.879-1.882c1.4-1.675,2.136-2.314,3.857-2.4Z" transform="translate(15858.989 1228.553)" fill="url(#linear-gradient-41)"/>
      <path id="Path_6403" data-name="Path 6403" d="M7.3,113.276,4.11,115.8s4.13-3.227,11.13,4.234l3.189-2.54C11.429,110.04,7.3,113.276,7.3,113.276Z" transform="translate(15863.72 1225.618)" fill="url(#linear-gradient-42)"/>
      <path id="Path_6404" data-name="Path 6404" d="M123.9,290.026l1.938.621s-2.493-.818-1.345-5.8l-1.938-.612C121.384,289.217,123.9,290.026,123.9,290.026Z" transform="translate(15861.837 1215.456)" fill="url(#linear-gradient-43)"/>
      <path id="Path_6406" data-name="Path 6406" d="M419,110.05Z" transform="translate(15857.131 1225.768)" fill="#fff"/>
      <path id="Path_6407" data-name="Path 6407" d="M416.582,112.12a3.7,3.7,0,0,1,2.164-2.07l-1.486.433a3.7,3.7,0,0,0-2.173,2.07c-.743,1.693.659,3.434.659,3.434l1.5-.433S415.839,113.813,416.582,112.12Z" transform="translate(15857.375 1225.768)" fill="url(#linear-gradient-44)"/>
      <path id="Path_6408" data-name="Path 6408" d="M51.547,10.06,48.64,11.942s3.4,3.829,2.333,8.251l2.907-1.882C54.943,13.889,51.547,10.06,51.547,10.06Z" transform="translate(15861.083 1231.687)" fill="url(#linear-gradient-45)"/>
      <path id="Path_6409" data-name="Path 6409" d="M257.452,290.108h1.486a6.369,6.369,0,0,0-.47-3.058H257A6.36,6.36,0,0,1,257.452,290.108Z" transform="translate(15859.005 1215.289)" fill="url(#linear-gradient-46)"/>
      <path id="Path_6413" data-name="Path 6413" d="M438.6,298.64l3.895-5.381s-7.649-4.422-11.816-8.768l-3.885,5.372C430.948,294.208,438.6,298.64,438.6,298.64Z" transform="translate(15856.67 1215.441)" fill="url(#linear-gradient-47)"/>
      <path id="Path_6414" data-name="Path 6414" d="M454.77,241.063l3.4-5.692a28.271,28.271,0,0,0-12.71-5.221l-3.406,5.645a28.281,28.281,0,0,1,12.72,5.268Z" transform="translate(15855.766 1218.658)" fill="url(#linear-gradient-48)"/>
      <path id="Path_6416" data-name="Path 6416" d="M398.305,244.451c.2-1.214-.141-1.835-1.11-3.076a3.847,3.847,0,0,1-.941-2.314l-1.684,1.11a3.848,3.848,0,0,0,.941,2.314c.941,1.232,1.3,1.882,1.1,3.067Z" transform="translate(15858.577 1218.13)" fill="url(#linear-gradient-49)"/>
      <path id="Path_6419" data-name="Path 6419" d="M389.444,258.223l2.474-3.584a42.891,42.891,0,0,1-7.865-5.588l-2.484,3.575A43.08,43.08,0,0,0,389.444,258.223Z" transform="translate(15859.347 1217.539)" fill="url(#linear-gradient-50)"/>
      <path id="Path_6420" data-name="Path 6420" d="M445.164,120.325,441.805,115a15.627,15.627,0,0,0-5.955,11.732l3.359,5.287a15.627,15.627,0,0,1,5.955-11.694Z" transform="translate(15856.133 1225.475)" fill="url(#linear-gradient-51)"/>
      <path id="Path_6421" data-name="Path 6421" d="M177.419,17.15,176.14,19.3a6.049,6.049,0,0,0,2.888,3.763l1.279-2.145a6.059,6.059,0,0,1-2.888-3.773Z" transform="translate(15860.729 1231.268)" fill="url(#linear-gradient-52)"/>
      <path id="Path_6422" data-name="Path 6422" d="M370.392,267.823l5.127-3.3A26.069,26.069,0,0,0,367.156,255L362,258.312A26.042,26.042,0,0,1,370.392,267.823Z" transform="translate(15857.197 1217.187)" fill="url(#linear-gradient-53)"/>
      <path id="Path_6423" data-name="Path 6423" d="M460.42,155Z" transform="translate(15854.679 1223.107)" fill="#fff"/>
      <path id="Path_6424" data-name="Path 6424" d="M455.672,156.755a5.692,5.692,0,0,1,4.252-1.8l-2.371-.188a5.645,5.645,0,0,0-4.281,1.8c-2,2.023-.941,5.316-.941,5.316l2.4.188S453.668,158.749,455.672,156.755Z" transform="translate(15855.175 1223.121)" fill="url(#linear-gradient-54)"/>
      <path id="Path_6425" data-name="Path 6425" d="M346.718,294.023l3.425-2.154s-4.441,2.728-10.509-5.419L336.2,288.6C342.278,296.752,346.718,294.023,346.718,294.023Z" transform="translate(15857.723 1215.325)" fill="url(#linear-gradient-55)"/>
      <path id="Path_6426" data-name="Path 6426" d="M251.4,38.46Z" transform="translate(15859.076 1230.006)" fill="#fff"/>
      <path id="Path_6427" data-name="Path 6427" d="M251.006,41.788a4.149,4.149,0,0,1,.3-3.368l-.941,1.468a4.158,4.158,0,0,0-.31,3.387c.621,2,3.123,2.446,3.123,2.446l.941-1.5S251.627,43.83,251.006,41.788Z" transform="translate(15859.208 1230.008)" fill="url(#linear-gradient-56)"/>
      <path id="Path_6428" data-name="Path 6428" d="M457.9,138.347l-2.3-4.817a13.284,13.284,0,0,0-6.285,9.267l2.267,4.826A13.284,13.284,0,0,1,457.9,138.347Z" transform="translate(15855.336 1224.378)" fill="url(#linear-gradient-57)"/>
      <path id="Path_6430" data-name="Path 6430" d="M392.811,298.407l5.353-5.5s-8.016-6.35-12.052-12.023l-5.363,5.5C384.8,292.057,392.811,298.407,392.811,298.407Z" transform="translate(15859.395 1215.655)" fill="url(#linear-gradient-58)"/>
      <path id="Path_6431" data-name="Path 6431" d="M290.54,10.82Z" transform="translate(15858.254 1231.642)" fill="#fff"/>
      <path id="Path_6432" data-name="Path 6432" d="M288.693,18.911a10.142,10.142,0,0,1,1.562-8.091l-2.644,3.33a10.085,10.085,0,0,0-1.628,8.129c1.007,5,6.953,6.689,6.953,6.689l2.681-3.368S289.747,23.907,288.693,18.911Z" transform="translate(15858.612 1231.642)" fill="url(#linear-gradient-59)"/>
    </g>
    <g id="Group_3329" data-name="Group 3329" transform="translate(746.61 175.963)">
      <path id="Path_5917" data-name="Path 5917" d="M315.32,210.37l7.815-6.12-1.287-1.36Z" transform="translate(-32.147)" fill="#001c38"/>
      <path id="Path_5918" data-name="Path 5918" d="M325.3,250.24l17.273,2.61.3-3.26Z" transform="translate(-33.451)" fill="#001c38"/>
      <path id="Path_5919" data-name="Path 5919" d="M351.575,221.38,327.27,231.77l31.6-9.33Z" transform="translate(-33.709)" fill="#001c38"/>
      <path id="Path_5920" data-name="Path 5920" d="M298.847,185.96l-7.337,14.16,10.8-16.62Z" transform="translate(-29.034)" fill="#001c38"/>
      <path id="Path_5921" data-name="Path 5921" d="M259.66,192.53l7.667-15.4-3.355.78Z" transform="translate(-24.871)" fill="#001c38"/>
      <path id="Path_5922" data-name="Path 5922" d="M247.14,172l3.425-16.98-1.652-.78Z" transform="translate(-23.235)" fill="#001c38"/>
      <path id="Path_5923" data-name="Path 5923" d="M92.157,239.49l-22.323-3.73-.443,4.21Z" fill="#001c38"/>
      <path id="Path_5924" data-name="Path 5924" d="M138.819,204.7l-6.546-5.21-.713,1.25Z" transform="translate(-8.127)" fill="#001c38"/>
      <path id="Path_5925" data-name="Path 5925" d="M108.468,217.26,88.44,205.61l1.052,4.4Z" transform="translate(-2.49)" fill="#001c38"/>
      <path id="Path_5926" data-name="Path 5926" d="M194.55,194.63l-1.478-24.75-4.242,1.41Z" transform="translate(-15.613)" fill="#001c38"/>
      <path id="Path_5927" data-name="Path 5927" d="M222.582,208.43l2.269-16.23-2.921.17Z" transform="translate(-19.939)" fill="#001c38"/>
      <path id="Path_5928" data-name="Path 5928" d="M156.69,188.09l-6.285-12.05-1.825,1.97Z" transform="translate(-10.351)" fill="#001c38"/>
    </g>
    <g id="Group_3333" data-name="Group 3333" transform="translate(322.25 -285.5)">
      <g id="Group_3332" data-name="Group 3332" transform="translate(586.75 697)">
        <g id="Group_3331" data-name="Group 3331" transform="translate(0 0)">
          <path id="Path_6433" data-name="Path 6433" d="M55.5,90.25A34.75,34.75,0,1,1,90.25,55.5,34.75,34.75,0,0,1,55.5,90.25ZM43.056,57.17l8.079,7.574L66.568,44.9a1.782,1.782,0,0,1,2.813,2.188L52.749,68.475a1.782,1.782,0,0,1-2.625.206l-9.5-8.91a1.782,1.782,0,1,1,2.438-2.6ZM55.5,87.28A31.78,31.78,0,1,0,23.72,55.5,31.78,31.78,0,0,0,55.5,87.28Z" transform="translate(-20.75 -20.75)" fill="#74d475"/>
        </g>
      </g>
    </g>
  </g>
</svg>
