<svg id="noun_Delete_1533148" xmlns="http://www.w3.org/2000/svg" width="14.734" height="16.519" viewBox="0 0 14.734 16.519">
  <g id="Group">
    <path id="Compound_Path" data-name="Compound Path" d="M29.234,12.441H24.751V10.2H18.982v2.241H14.5v1.245h1.1V23.855a2.864,2.864,0,0,0,2.864,2.864h6.848a2.843,2.843,0,0,0,2.843-2.864V13.686h1.079Zm-9.006-1h3.279v1H20.228Zm6.682,12.41a1.619,1.619,0,0,1-1.6,1.619H18.464a1.619,1.619,0,0,1-1.619-1.619V13.686H26.91Z" transform="translate(-14.5 -10.2)" fill="#113976"/>
    <rect id="Path" width="1.245" height="7.056" transform="translate(3.901 5.624)" fill="#113976"/>
    <rect id="Path-2" data-name="Path" width="1.245" height="7.056" transform="translate(6.744 5.624)" fill="#113976"/>
    <rect id="Path-3" data-name="Path" width="1.245" height="7.056" transform="translate(9.587 5.624)" fill="#113976"/>
  </g>
</svg>
