<svg xmlns="http://www.w3.org/2000/svg" width="40.938" height="35.433" viewBox="0 0 40.938 35.433">
  <g id="Group_3643" data-name="Group 3643" transform="translate(0)">
    <g id="Group_3640" data-name="Group 3640" transform="translate(0 0)">
      <path id="Path_9721" data-name="Path 9721" d="M69.621,59.72H29.765a.541.541,0,0,0-.541.54V94.613a.541.541,0,0,0,.541.54H69.621a.541.541,0,0,0,.541-.54V60.26A.541.541,0,0,0,69.621,59.72ZM69.08,94.072H30.306V67.886H69.08V94.072Zm0-27.267H30.306V60.8H69.08v6.005Z" transform="translate(-29.224 -59.72)" fill="#113976"/>
      <path id="Path_9722" data-name="Path 9722" d="M58.192,89.2a1.736,1.736,0,1,0-1.736-1.736A1.739,1.739,0,0,0,58.192,89.2Zm0-2.391a.655.655,0,1,1-.654.655A.655.655,0,0,1,58.192,86.8Z" transform="translate(-53.998 -83.377)" fill="#113976"/>
      <path id="Path_9723" data-name="Path 9723" d="M111.181,89.2a1.736,1.736,0,1,0-1.736-1.736A1.739,1.739,0,0,0,111.181,89.2Zm0-2.391a.655.655,0,1,1-.654.655A.655.655,0,0,1,111.181,86.8Z" transform="translate(-102.204 -83.377)" fill="#113976"/>
      <path id="Path_9724" data-name="Path 9724" d="M164.169,89.2a1.736,1.736,0,1,0-1.736-1.736A1.739,1.739,0,0,0,164.169,89.2Zm0-2.391a.655.655,0,1,1-.654.655A.655.655,0,0,1,164.169,86.8Z" transform="translate(-150.409 -83.377)" fill="#113976"/>
      <path id="Path_9725" data-name="Path 9725" d="M63.585,229.8h8.48a2.042,2.042,0,0,0,2.04-2.04v-8.479a2.043,2.043,0,0,0-2.04-2.04h-8.48a2.043,2.043,0,0,0-2.041,2.04v8.479A2.043,2.043,0,0,0,63.585,229.8Zm-.959-10.519a.961.961,0,0,1,.959-.96h8.48a.959.959,0,0,1,.958.96v8.479a.959.959,0,0,1-.958.959h-8.48a.96.96,0,0,1-.959-.959Z" transform="translate(-58.627 -203.027)" fill="#113976"/>
      <path id="Path_9726" data-name="Path 9726" d="M101.785,241.851a.541.541,0,0,0,.541-.54,1.469,1.469,0,1,1,2.327,1.191,3.188,3.188,0,0,0-1.4,2.573v.311a.541.541,0,0,0,1.082,0v-.311a2.122,2.122,0,0,1,.951-1.7,2.55,2.55,0,1,0-4.043-2.067A.541.541,0,0,0,101.785,241.851Z" transform="translate(-94.743 -222.602)" fill="#113976"/>
      <path id="Path_9727" data-name="Path 9727" d="M124.056,322.717a.54.54,0,1,0,.54.54A.54.54,0,0,0,124.056,322.717Z" transform="translate(-115.005 -298.979)" fill="#113976"/>
      <path id="Path_9728" data-name="Path 9728" d="M206.739,275h7.67l-.738.547a.54.54,0,0,0,.644.868l2.053-1.521c.011-.008.016-.02.026-.029a.508.508,0,0,0,.06-.061c.008-.009.019-.012.026-.021s.006-.017.012-.025a.508.508,0,0,0,.032-.057.929.929,0,0,0,.048-.137.5.5,0,0,0,.007-.064c0-.014.008-.025.008-.039s-.007-.026-.008-.039a.527.527,0,0,0-.007-.064.928.928,0,0,0-.048-.137.529.529,0,0,0-.032-.057c-.005-.008-.006-.017-.012-.025s-.02-.016-.029-.026a.518.518,0,0,0-.057-.057c-.01-.009-.015-.021-.026-.029l-2.053-1.522a.54.54,0,1,0-.644.868l.739.548h-7.671a.54.54,0,1,0,0,1.081Z" transform="translate(-190.224 -253.203)" fill="#113976"/>
      <path id="Path_9729" data-name="Path 9729" d="M335.541,245.947a5.43,5.43,0,1,0-5.431-5.43A5.437,5.437,0,0,0,335.541,245.947Zm0-9.78a4.35,4.35,0,1,1-4.349,4.35A4.355,4.355,0,0,1,335.541,236.167Z" transform="translate(-302.952 -219.257)" fill="#113976"/>
      <path id="Path_9730" data-name="Path 9730" d="M367.78,274.032a.536.536,0,0,0,.405.183h.015a.539.539,0,0,0,.409-.2l2.586-3.263a.54.54,0,0,0-.847-.672l-2.185,2.757-.5-.565a.54.54,0,1,0-.81.714Z" transform="translate(-336.258 -250.903)" fill="#113976"/>
    </g>
  </g>
</svg>
