<svg xmlns="http://www.w3.org/2000/svg" width="17.816" height="15.387" viewBox="0 0 17.816 15.387">
  <g id="noun_edit_861887" transform="translate(0.15 0.151)">
    <g id="Group_3364" data-name="Group 3364">
      <path id="Path_7491" data-name="Path 7491" d="M28.543,18.991a.487.487,0,0,0-.281.129l-2.706,2.547H15.46A1.467,1.467,0,0,0,14,23.126v9.488a1.467,1.467,0,0,0,1.46,1.46H25.677a1.467,1.467,0,0,0,1.46-1.46V26.236l4.227-3.976a.487.487,0,0,0,.008-.7l-2.433-2.433A.487.487,0,0,0,28.543,18.991Zm.046,1.163,1.741,1.741-.8.745L27.791,20.9Zm-1.505,1.414,1.741,1.741-6.264,5.9H20.812V27.467ZM15.46,22.64h9.062L19.991,26.9a.487.487,0,0,0-.152.357v2.433a.487.487,0,0,0,.486.487h2.433a.487.487,0,0,0,.335-.137l3.071-2.889v5.458a.475.475,0,0,1-.487.487H15.46a.475.475,0,0,1-.487-.487V23.126A.475.475,0,0,1,15.46,22.64Z" transform="translate(-14 -18.988)" fill="#113976" stroke="#113976" stroke-width="0.3"/>
    </g>
  </g>
</svg>
