<svg xmlns="http://www.w3.org/2000/svg" width="12.541" height="11.318" viewBox="0 0 12.541 11.318"><defs><style>.a{fill:#8b8b8b;}</style></defs><path class="a" d="M.764,0H11.777a.808.808,0,0,1,.764.851v9.584a.838.838,0,0,1-.764.883H.764A.838.838,0,0,1,0,10.435V.851A.808.808,0,0,1,.764,0ZM4.246,6.053.878,10.687H11.663L8.323,6.053l-.142.158a2.529,2.529,0,0,1-1.9.883,2.444,2.444,0,0,1-1.9-.883ZM.566,10.12,3.85,5.612.566,1.986ZM8.719,5.612l3.256,4.508V1.986ZM.566,1.072l4.218,4.7a1.954,1.954,0,0,0,1.5.694,1.9,1.9,0,0,0,1.472-.694l4.218-4.7V.851a.205.205,0,0,0-.2-.221H.764a.205.205,0,0,0-.2.221Z"/></svg>