<svg xmlns="http://www.w3.org/2000/svg" width="16.452" height="14.813" viewBox="0 0 16.452 14.813"><g transform="translate(0)"><rect width="19.982" height="0.322" transform="translate(1.045 14.357) rotate(-45)"/><rect width="20.304" height="0.645" transform="translate(0.817 14.357) rotate(-45)"/><path d="M29.821,43.183a13.636,13.636,0,0,1-4.192-3.089c.877-.945,3.76-3.747,7.094-3.747a7.365,7.365,0,0,1,3.157.78l.729-.729a8.542,8.542,0,0,0-3.885-1.019c-4.453,0-7.964,4.227-8.113,4.392a.484.484,0,0,0,0,.613A14.629,14.629,0,0,0,29.089,43.9Z" transform="translate(-24.501 -32.686)"/><path d="M51.778,42.556A14.916,14.916,0,0,0,48.14,39.49l-.719.719a14.375,14.375,0,0,1,3.337,2.67c-.877.945-3.76,3.75-7.094,3.75a6.829,6.829,0,0,1-2.257-.4l-.758.758a8.061,8.061,0,0,0,3.015.613c4.453,0,7.964-4.23,8.113-4.408A.484.484,0,0,0,51.778,42.556Z" transform="translate(-35.443 -35.471)"/><path d="M43.089,46.544,45.6,44.029a.684.684,0,0,1,.874-1.045,2.457,2.457,0,1,0-3.389,3.547Z" transform="translate(-36.508 -37.308)"/><path d="M49.675,46.79a.687.687,0,0,1-.393.384L46.56,49.9a2.457,2.457,0,0,0,3.308-3.3Z" transform="translate(-39.447 -40.288)"/></g></svg>