<svg xmlns="http://www.w3.org/2000/svg" width="90.766" height="83.308" viewBox="0 0 90.766 83.308"><defs><style>.a{fill:#113976;}</style></defs><g transform="translate(0)"><path class="a" d="M63.343,61.586h0a7.815,7.815,0,0,0,5.94-2.486,8.848,8.848,0,0,0,2.486-5.94,8.427,8.427,0,1,0-8.425,8.425Zm0-14.644A6.35,6.35,0,0,1,67.9,57.718a6.187,6.187,0,0,1-4.418,1.936v0A6.342,6.342,0,0,1,57.125,53.3,6.061,6.061,0,0,1,63.343,46.943Z" transform="translate(-18.03 -34.371)"/><path class="a" d="M131.345,53.575H103.576l-.414-.829,2.211-3.179-4.557-4.557-3.179,2.211A13.174,13.174,0,0,0,93.768,45.7l-.689-3.868H86.586L85.893,45.7a19.244,19.244,0,0,0-3.868,1.657L78.71,45.145l-4.561,4.561,2.211,3.179c-.136.275-.136.414-.275.689H48.455a3.859,3.859,0,0,0-3.868,3.868v53.882a3.861,3.861,0,0,0,3.868,3.868H78.432l-5.247,7.872H67.656v2.075H112.28v-2.075h-5.525l-5.25-7.872h29.98a3.864,3.864,0,0,0,3.868-3.868V57.443A4.182,4.182,0,0,0,131.345,53.575Zm-52.36-5.8,2.9,2.075.554-.418A17.906,17.906,0,0,1,86.861,47.5l.689-.139.693-3.454h3.039l.689,3.454.693.139a12.389,12.389,0,0,1,4.418,1.8l.554.414,2.9-2.072,2.075,2.072-2.075,2.9.414.554a13.9,13.9,0,0,1,1.936,4.422l.139.689,3.454.689V62l-3.454.693v.689a12.5,12.5,0,0,1-1.8,4.422l-.414.554,2.072,2.9-2.072,2.072-2.9-2.072-.55.414a17.977,17.977,0,0,1-4.422,1.936l-.689.136L91.557,77.2H88.518l-.689-3.314-.693-.139a13.44,13.44,0,0,1-4.418-1.8l-.554-.275-2.9,2.072-2.072-2.072,2.072-2.9-.414-.554A17.906,17.906,0,0,1,76.914,63.8l-.139-.689-3.454-.693V59.378l3.454-.693L76.914,58a13.535,13.535,0,0,1,1.8-4.422l.414-.554-2.072-2.9Zm-30.53,7.875h26.8a10.467,10.467,0,0,1-.414,1.107l-3.868.689v6.493l3.868.689A19.044,19.044,0,0,0,76.5,68.493l-2.211,3.318,4.557,4.557,3.179-2.211a19.053,19.053,0,0,0,3.868,1.661l.693,3.868h6.493l.689-3.868a19.053,19.053,0,0,0,3.868-1.661l3.314,2.211,4.561-4.557L103.3,68.632a19.244,19.244,0,0,0,1.657-3.868l3.868-.689V57.582l-3.868-.693a2.524,2.524,0,0,1-.275-.968h26.8a1.831,1.831,0,0,1,1.8,1.8v47.8H46.794V57.443A1.715,1.715,0,0,1,48.455,55.646Zm55.674,67.282H75.671l5.25-7.875H98.879Zm27.216-9.947H48.455a1.829,1.829,0,0,1-1.8-1.8v-4.007H133v4.007A1.567,1.567,0,0,1,131.345,112.981Z" transform="translate(-44.587 -41.831)"/><path class="a" d="M55.97,62.105l-1.8,2.211h-5.25l.693,1.522a8.876,8.876,0,0,0,8.011,5.111A8.745,8.745,0,0,0,65.088,66.8H94.375a9.069,9.069,0,0,0,7.461,4.147,8.8,8.8,0,0,0,8.015-5.111l.689-1.522h-5.25l-1.8-2.211,1.8-2.211h5.39l-.693-1.518a8.761,8.761,0,0,0-15.472-1.107h-29.7a9.069,9.069,0,0,0-7.461-4.143,8.777,8.777,0,0,0-8.015,5.25l-.689,1.518h5.39Zm1.382-6.768a6.815,6.815,0,0,1,5.94,3.589l.279.554H95.343l.279-.554a6.815,6.815,0,0,1,5.94-3.589,6.546,6.546,0,0,1,5.25,2.625h-2.9l-3.589,4.282,3.589,4.282h2.764a6.64,6.64,0,0,1-5.111,2.35,6.811,6.811,0,0,1-5.94-3.593l-.279-.554H63.57l-.279.554a6.811,6.811,0,0,1-5.94,3.593,6.635,6.635,0,0,1-5.111-2.35H55l3.593-4.282L55,57.823H52.1A6.838,6.838,0,0,1,57.352,55.337Z" transform="translate(-34.144 -12.785)"/></g></svg>