<svg id="noun_Location_2227555" xmlns="http://www.w3.org/2000/svg" width="16.195" height="23.458" viewBox="0 0 16.195 23.458">
  <g id="Group_91" data-name="Group 91" transform="translate(0 0)">
    <path id="Path_1107" data-name="Path 1107" d="M29.1,960.358a8.106,8.106,0,0,0-8.1,8.1,10.743,10.743,0,0,0,1.475,5.035l6.143,10.052a.558.558,0,0,0,.96,0l6.143-10.052a10.747,10.747,0,0,0,1.475-5.035A8.106,8.106,0,0,0,29.1,960.358Zm0,1.118a6.972,6.972,0,0,1,6.981,6.98,10.327,10.327,0,0,1-1.318,4.45L29.1,982.172l-5.663-9.265a10.333,10.333,0,0,1-1.318-4.452A6.972,6.972,0,0,1,29.1,961.476Zm0,2.792a4.188,4.188,0,1,0,4.188,4.188A4.2,4.2,0,0,0,29.1,964.268Zm0,1.117a3.071,3.071,0,1,1-3.072,3.072A3.063,3.063,0,0,1,29.1,965.384Z" transform="translate(-21 -960.358)"/>
  </g>
</svg>
