<svg xmlns="http://www.w3.org/2000/svg" width="10.607" height="13.054" viewBox="0 0 10.607 13.054"><defs><style>.a{fill:#8b8b8b;}</style></defs><path class="a" d="M32.975,22.079h-.408V19.632A1.634,1.634,0,0,0,30.935,18H27.671a1.634,1.634,0,0,0-1.632,1.632v2.448h-.408A1.634,1.634,0,0,0,24,23.711v5.711a1.634,1.634,0,0,0,1.632,1.632h7.343a1.634,1.634,0,0,0,1.632-1.632V23.711A1.634,1.634,0,0,0,32.975,22.079Zm-6.119-2.448a.816.816,0,0,1,.816-.816h3.264a.816.816,0,0,1,.816.816v2.448h-4.9Zm6.935,9.791a.816.816,0,0,1-.816.816H25.632a.816.816,0,0,1-.816-.816V23.711a.816.816,0,0,1,.816-.816h7.343a.816.816,0,0,1,.816.816Zm-4.487-4.9A1.22,1.22,0,0,0,28.91,26.9a.442.442,0,0,0-.014.071V28.2a.408.408,0,1,0,.816,0V26.975A.442.442,0,0,0,29.7,26.9a1.22,1.22,0,0,0-.394-2.376Zm0,1.632a.408.408,0,1,1,.408-.408A.409.409,0,0,1,29.3,26.159Z" transform="translate(-24 -18)"/></svg>