<svg xmlns="http://www.w3.org/2000/svg" width="39.261" height="40.959" viewBox="0 0 39.261 40.959"><defs><style>.a{fill:#bb9437;}</style></defs><path class="a" d="M36.573,32.467a.853.853,0,0,0-.853.853V42.4a.853.853,0,0,1-.853.853H7.56a.853.853,0,0,1-.853-.853V9.47L10.47,5.707h24.4a.853.853,0,0,1,.853.853v7.9a.853.853,0,0,0,1.707,0V6.56A2.56,2.56,0,0,0,34.866,4H10.47a1.707,1.707,0,0,0-1.2.5L5.5,8.267A1.707,1.707,0,0,0,5,9.47V42.4a2.56,2.56,0,0,0,2.56,2.56H34.866a2.56,2.56,0,0,0,2.56-2.56V33.32A.853.853,0,0,0,36.573,32.467Z" transform="translate(-5 -4)"/><path class="a" d="M15.473,13.62V9.353a.853.853,0,1,0-1.707,0v3.413H10.353a.853.853,0,1,0,0,1.707H14.62A.853.853,0,0,0,15.473,13.62Z" transform="translate(-5.66 -4.66)"/><path class="a" d="M45.618,18.982a3.516,3.516,0,0,0-4.966.1L23.278,36.458a.853.853,0,0,0-.2.316l-2.031,5.683a.853.853,0,0,0,1.092,1.092l5.683-2.031a.853.853,0,0,0,.316-.2L45.516,23.974a3.516,3.516,0,0,0,.1-4.992Zm-2.935,5.384-2.449-2.449.683-.683,2.449,2.449Zm-14.8,14.8-2.449-2.449L39.628,22.523l2.449,2.449Zm-4.625,2.176,1.365-3.814.2-.2,2.449,2.449-.2.2Zm21.051-18.6-.341.341-2.449-2.449.341-.341a1.732,1.732,0,0,1,2.449,2.449Z" transform="translate(-7.347 -6.054)"/><path class="a" d="M31.36,21.853A.853.853,0,0,0,30.506,21H16.853a.853.853,0,0,0,0,1.707H30.506A.853.853,0,0,0,31.36,21.853Z" transform="translate(-6.614 -6.493)"/><circle class="a" cx="1.28" cy="1.28" r="1.28" transform="translate(4.693 14.08)"/><path class="a" d="M16.853,29a.853.853,0,0,0,0,1.707h8.533a.853.853,0,1,0,0-1.707Z" transform="translate(-6.614 -7.667)"/><circle class="a" cx="1.28" cy="1.28" r="1.28" transform="translate(4.693 20.906)"/></svg>