<svg xmlns="http://www.w3.org/2000/svg" width="20.212" height="20.199" viewBox="0 0 20.212 20.199">
  <g id="Group_3568" data-name="Group 3568" transform="translate(-877.534 -570.509)">
    <path id="Path_9550" data-name="Path 9550" d="M19.462,21.678a1.716,1.716,0,0,1-.412-.049h0a23.063,23.063,0,0,1-17-17,1.713,1.713,0,0,1,.234-1.353,1.762,1.762,0,0,1,1.165-.766l2.768-.486A1.747,1.747,0,0,1,8.207,3.33,16.971,16.971,0,0,0,9.13,6a1.734,1.734,0,0,1-.747,2.26l-.181.1a1.129,1.129,0,0,0-.554.707,1.089,1.089,0,0,0,.138.867,20.225,20.225,0,0,0,5.941,5.953,1.089,1.089,0,0,0,.867.138,1.129,1.129,0,0,0,.72-.56l.1-.181a1.74,1.74,0,0,1,2.269-.747,17.066,17.066,0,0,0,2.672.923,1.744,1.744,0,0,1,1.307,1.993l-.486,2.768a1.762,1.762,0,0,1-.766,1.165,1.713,1.713,0,0,1-.947.289Zm-.264-.646a1.1,1.1,0,0,0,.867-.154,1.122,1.122,0,0,0,.5-.738l.486-2.768a1.132,1.132,0,0,0-.855-1.288,17.355,17.355,0,0,1-2.768-.966,1.132,1.132,0,0,0-1.473.48l-.1.185a1.759,1.759,0,0,1-1.11.861,1.685,1.685,0,0,1-1.35-.218A20.846,20.846,0,0,1,7.27,10.282a1.688,1.688,0,0,1-.218-1.353,1.762,1.762,0,0,1,.861-1.107l.185-.1a1.138,1.138,0,0,0,.48-1.473,17.356,17.356,0,0,1-.966-2.768,1.135,1.135,0,0,0-1.288-.855l-2.768.486a1.135,1.135,0,0,0-.76.5,1.11,1.11,0,0,0-.151.867A22.448,22.448,0,0,0,19.2,21.033Z" transform="translate(875.791 568.78)" fill="#fff" stroke="#fff" stroke-width="0.5"/>
    <path id="Path_9551" data-name="Path 9551" d="M46.14,11.109h0a.308.308,0,0,1-.308-.308,7.423,7.423,0,0,0-7.285-7.546.308.308,0,0,1,0-.615,8.038,8.038,0,0,1,7.9,8.167A.308.308,0,0,1,46.14,11.109Z" transform="translate(850.693 568.335)" fill="#fff" stroke="#fff" stroke-width="0.5"/>
    <path id="Path_9552" data-name="Path 9552" d="M43.567,16.614h0a.308.308,0,0,1-.308-.308A4.951,4.951,0,0,0,38.4,11.285a.308.308,0,1,1,0-.615,5.566,5.566,0,0,1,5.477,5.655A.308.308,0,0,1,43.567,16.614Z" transform="translate(850.797 562.774)" fill="#fff" stroke="#fff" stroke-width="0.5"/>
    <path id="Path_9553" data-name="Path 9553" d="M41.032,22.144h0a.308.308,0,0,1-.308-.308,2.46,2.46,0,0,0-2.417-2.522.308.308,0,1,1,0-.615,3.093,3.093,0,0,1,3.035,3.143A.308.308,0,0,1,41.032,22.144Z" transform="translate(850.859 557.213)" fill="#fff" stroke="#fff" stroke-width="0.5"/>
  </g>
</svg>
