<svg xmlns="http://www.w3.org/2000/svg" width="516.988" height="332.072" viewBox="0 0 516.988 332.072">
  <g id="Group_3335" data-name="Group 3335" transform="translate(-19871.561 -1451.39)">
    <path id="Path_5759" data-name="Path 5759" d="M309.745,390.585c.526,6.4-12.54,12.675-29.149,14.011s-30.515-2.763-31.041-9.161,12.539-12.675,29.164-14.011S309.234,384.188,309.745,390.585Z" transform="translate(19770.723 1378.613)" fill="#d8d8d8"/>
    <path id="Path_5760" data-name="Path 5760" d="M316.424,393.164c-.916,2.583-6.533,2.928-12.539.781s-10.122-6.007-9.191-8.575,6.533-2.928,12.54-.781S317.355,390.581,316.424,393.164Z" transform="translate(19823.912 1364.175)" fill="#d8d8d8"/>
    <path id="Path_5761" data-name="Path 5761" d="M264.477,411.472h0a3.754,3.754,0,0,1-3.739-3.769c.075-32.783-9.7-54.288-12.209-58.282a3.783,3.783,0,0,1,4.3-6.112c3.529,1.712,8.815,18.336,8.86,18.5a153.761,153.761,0,0,1,6.563,45.908A3.769,3.769,0,0,1,264.477,411.472Z" transform="translate(19885.582 1302.225) rotate(14)" fill="#8f999e"/>
    <path id="Path_5762" data-name="Path 5762" d="M325.461,374.517a3.754,3.754,0,0,1-2.7-6.352c2.523-2.658,9.085-11.4,6.187-16.519-3-5.3-15.3-10.077-22.316-11.834a3.755,3.755,0,1,1,1.832-7.283c2.163.541,21.385,5.6,27.031,15.378,6.292,10.993-6.728,24.809-7.283,25.394a3.769,3.769,0,0,1-2.748,1.216Z" transform="translate(19914.313 1303.953) rotate(14)" fill="#8f999e"/>
    <path id="Path_5763" data-name="Path 5763" d="M301.871,287.353a3.665,3.665,0,0,1-1.757-.435,3.724,3.724,0,0,1-1.5-5.061l24.839-47.425a3.758,3.758,0,0,1,6.653,3.5l-24.974,47.41a3.74,3.74,0,0,1-3.259,2.012Z" transform="translate(19923.709 1254.591) rotate(14)" fill="#8f999e"/>
    <path id="Path_5764" data-name="Path 5764" d="M257.236,295.678h-.405l-60.31-6.322a3.775,3.775,0,1,1,.781-7.509l60.31,6.307a3.759,3.759,0,0,1-.375,7.509Z" transform="translate(19866.584 1265.895) rotate(14)" fill="#8f999e"/>
    <path id="Path_5765" data-name="Path 5765" d="M367.458,386.678l-99.82,30.846a3.785,3.785,0,0,1-4.761-2.508L226.384,297.054a3.89,3.89,0,0,1,.27-2.9L239.51,269.5a3.829,3.829,0,0,1,2.268-1.892l81.094-25.079a3.814,3.814,0,0,1,4.76,2.523L369.95,381.887a3.815,3.815,0,0,1-2.493,4.791Z" transform="translate(19887.482 1250.696) rotate(14)" fill="#fff"/>
    <path id="Path_5766" data-name="Path 5766" d="M267.013,419.686a5.286,5.286,0,0,1-5.076-3.739L225.46,297.985a5.286,5.286,0,0,1,.36-4.025l12.87-24.629a5.361,5.361,0,0,1,3.139-2.613l81.094-25.094a5.63,5.63,0,0,1,1.5-.225,5.286,5.286,0,0,1,5.076,3.739L371.91,381.962a5.316,5.316,0,0,1-3.514,6.653L268.59,419.506A5.559,5.559,0,0,1,267.013,419.686Zm57.5-175.328a2.208,2.208,0,0,0-.691.105L242.73,269.543a2.343,2.343,0,0,0-1.367,1.141l-12.855,24.659a2.313,2.313,0,0,0-.165,1.757L264.806,415a2.358,2.358,0,0,0,2.9,1.5l99.851-30.786a2.268,2.268,0,0,0,1.367-1.126,2.313,2.313,0,0,0,.165-1.757L326.768,245.98A2.283,2.283,0,0,0,324.515,244.358Z" transform="translate(19887.109 1250.108) rotate(14)" fill="#8f999e"/>
    <path id="Path_5768" data-name="Path 5768" d="M269.262,284.769a13.1,13.1,0,0,0-6.232,6.472,9.01,9.01,0,0,0,10.272,2.1,12.975,12.975,0,0,0,6.2-6.487A9.01,9.01,0,0,0,269.262,284.769Z" transform="translate(19900.346 1275.433) rotate(14)" fill="#fffcf3"/>
    <path id="Path_5769" data-name="Path 5769" d="M240.351,259.73l-.135.12L226.4,286.04a3.694,3.694,0,0,0-.15.706l16.94-5.241a3.709,3.709,0,0,0,2.448-4.655Z" transform="translate(19885.383 1259.156) rotate(14)" fill="#fffcf3"/>
    <path id="Path_5770" data-name="Path 5770" d="M225.06,289.732l.3-2.313a4.354,4.354,0,0,1,.21-.976l.105-.24,14.086-26.566.225-.135,1.742-1.5,6.007,19.342a5.286,5.286,0,0,1-.375,3.995,5.211,5.211,0,0,1-3.079,2.553Zm15.5-25.3L229.61,285.181l13.726-4.235a2.253,2.253,0,0,0,1.5-2.793Z" transform="translate(19885.018 1258.17) rotate(14)" fill="#8f999e"/>
    <path id="Path_5773" data-name="Path 5773" d="M186.627,228.607H131.558a5.5,5.5,0,0,1-3.935-1.682,5.346,5.346,0,0,1-1.5-3.98,12.793,12.793,0,0,1,.36-2.358,11.593,11.593,0,0,1,9.146-8.485,11.728,11.728,0,0,1,7,.871,18.637,18.637,0,0,1,36.327-.3,11.535,11.535,0,0,1,3.139-.12,11.128,11.128,0,0,1,9.881,10.512,5.151,5.151,0,0,1-1.5,3.889,5.451,5.451,0,0,1-3.844,1.652ZM137.791,214.6a8.892,8.892,0,0,0-1.652.15,9.01,9.01,0,0,0-7.013,6.518,10.815,10.815,0,0,0-.285,1.832,2.7,2.7,0,0,0,.736,1.982,2.748,2.748,0,0,0,1.982.841h55.069a2.763,2.763,0,0,0,2-.841,2.508,2.508,0,0,0,.721-1.817,8.365,8.365,0,0,0-10.978-7.659l-1.5.5-.24-1.5a15.933,15.933,0,0,0-31.536.721l-.24,2.253-1.862-1.292A8.875,8.875,0,0,0,137.791,214.6Z" transform="translate(19745.445 1283.535)" fill="#f8f8f8"/>
    <path id="Path_5774" data-name="Path 5774" d="M434.335,227.959H388.968a6.908,6.908,0,0,1-4.851-2,6.368,6.368,0,0,1-1.877-4.505,15.878,15.878,0,0,1,.225-2.388,13.11,13.11,0,0,1,16.024-10.317,17.963,17.963,0,0,1,33.429,2.973,9.791,9.791,0,0,1,9.131,9.761,6.608,6.608,0,0,1-6.713,6.472Zm-38.94-16.88a10.4,10.4,0,0,0-10.242,8.485,13.651,13.651,0,0,0-.18,1.907,3.65,3.65,0,0,0,1.1,2.583,4.145,4.145,0,0,0,3,1.216H434.44a3.95,3.95,0,0,0,4.025-3.724,7.118,7.118,0,0,0-7.1-7.148H429.9l-.24-1.111a15.288,15.288,0,0,0-29.089-2.478L400.1,212l-1.2-.42A10.394,10.394,0,0,0,395.4,211.079Z" transform="translate(19873.953 1283.687)" fill="#f8f8f8"/>
    <path id="Path_5775" data-name="Path 5775" d="M355.312,218.924h-.12a6.007,6.007,0,0,0-5.932-6.007v-.12a6.007,6.007,0,0,0,5.932-6.007h.12a6.007,6.007,0,0,0,6.007,6.007v.12A6.007,6.007,0,0,0,355.312,218.924Z" transform="translate(19857.404 1287.766)" fill="#113976"/>
    <path id="Path_5776" data-name="Path 5776" d="M199.777,236h-.12a6.007,6.007,0,0,0-6.007-5.932v-.12a6.007,6.007,0,0,0,6.007-5.932h.12a6.007,6.007,0,0,0,6.007,5.932V230A6.007,6.007,0,0,0,199.777,236Z" transform="translate(19779.33 1296.411)" fill="#113976"/>
    <path id="Path_5777" data-name="Path 5777" d="M290.269,223.379h-.255a12.224,12.224,0,0,0-12.224-12.239v-.255a12.209,12.209,0,0,0,12.224-12.224h.255a12.224,12.224,0,0,0,12.239,12.224v.3a12.239,12.239,0,0,0-12.239,12.194Z" transform="translate(19821.547 1283.687)" fill="#113976"/>
    <path id="Path_5778" data-name="Path 5778" d="M378.725,260.361h-.18a8.9,8.9,0,0,0-8.905-8.905v-.18a8.92,8.92,0,0,0,8.905-8.905h.18a8.92,8.92,0,0,0,8.905,8.905v.18a8.9,8.9,0,0,0-8.905,8.905Z" transform="translate(19867.629 1305.618)" fill="#113976"/>
    <path id="Path_5779" data-name="Path 5779" d="M147.8,278.491h-.2a8.9,8.9,0,0,0-8.905-8.905v-.18a8.89,8.89,0,0,0,8.905-8.905h.2a8.89,8.89,0,0,0,8.905,8.905v.18A8.9,8.9,0,0,0,147.8,278.491Z" transform="translate(19751.76 1314.715)" fill="#113976"/>
    <rect id="Rectangle_1125" data-name="Rectangle 1125" width="43.19" height="0.25" transform="translate(20345.359 1451.39)" fill="#ebebeb"/>
    <path id="Path_6472" data-name="Path 6472" d="M243.19,208.48l-10.1-6.08,3.71,8.06Z" transform="translate(20028.898 1410.5)" fill="#ebebeb"/>
    <path id="Path_6473" data-name="Path 6473" d="M236.8,210.94a.49.49,0,0,1-.44-.28l-3.71-8.06a.482.482,0,0,1,.69-.62l10.1,6.08a.5.5,0,0,1,.24.48.49.49,0,0,1-.34.4l-6.4,2Zm-2.61-7.32,2.87,6.25,5-1.53Z" transform="translate(20028.898 1410.5)" fill="#407bff"/>
    <path id="Path_6474" data-name="Path 6474" d="M224.284,227.632a3.539,3.539,0,0,1-3.539,3.733,4.087,4.087,0,0,1-4-3.733,3.433,3.433,0,0,1,3.539-3.751,4.1,4.1,0,0,1,4,3.751Z" transform="translate(19841.537 1416.392) rotate(-6)" fill="#8f999e"/>
    <path id="Path_6475" data-name="Path 6475" d="M237.988,227.631a3.432,3.432,0,0,1-3.539,3.733,4.1,4.1,0,0,1-4.016-3.733,3.539,3.539,0,0,1,3.539-3.751,4.087,4.087,0,0,1,4.016,3.751Z" transform="translate(19852.016 1415.292) rotate(-6)" fill="#8f999e"/>
    <path id="Path_6476" data-name="Path 6476" d="M257.3,245.587a.867.867,0,0,1-.849-.8c-.442-6.033-9.89-10.934-21.055-10.934-7.413,0-14.066,2.212-17.357,5.75a6.617,6.617,0,0,0-2.017,5.06.887.887,0,0,1-1.769.124,8.422,8.422,0,0,1,2.477-6.352c3.539-3.875,10.74-6.3,18.613-6.3,12.261,0,22.258,5.5,22.753,12.527a.849.849,0,0,1-.8.9Z" transform="translate(19840.301 1422.912) rotate(-6)" fill="#8f999e"/>
    <path id="Path_6477" data-name="Path 6477" d="M213.533,224.218a.9.9,0,0,1-.584-.23.867.867,0,0,1,0-1.221l3.769-4.052a.867.867,0,0,1,1.2,0,.849.849,0,0,1,0,1.2l-3.769,4.052a.849.849,0,0,1-.619.248Z" transform="translate(19838.016 1412.58) rotate(-6)" fill="#8f999e"/>
    <path id="Path_6478" data-name="Path 6478" d="M239.831,224.218a.973.973,0,0,1-.584-.23l-4.335-4.052a.849.849,0,0,1,0-1.221.867.867,0,0,1,1.2,0l4.335,4.052a.849.849,0,0,1,0,1.2.92.92,0,0,1-.619.248Z" transform="translate(19854.814 1410.815) rotate(-6)" fill="#8f999e"/>
  </g>
</svg>
