<svg xmlns="http://www.w3.org/2000/svg" width="439.289" height="306.657" viewBox="0 0 439.289 306.657">
  <g id="Group_3498" data-name="Group 3498" transform="translate(-706.151 -519.709)">
    <g id="Group_3496" data-name="Group 3496" transform="translate(753.195 588.557)">
      <circle id="Ellipse_49" data-name="Ellipse 49" cx="118.905" cy="118.905" r="118.905" transform="translate(39.839)" fill="#d5d5d5" opacity="0.12"/>
      <path id="Path_9566" data-name="Path 9566" d="M219.186,218.2h-7.079l-3.8,13.272h7.6l-4.738,18.546,13.874-23.613h-8.206Z" transform="translate(-95.543 -46.194)" fill="#bb9437" opacity="0.31"/>
      <path id="Path_9569" data-name="Path 9569" d="M240.953,226.19h-9.027l-4.836,16.927h9.694l-6.051,23.645,17.693-30.112h-10.46Z" transform="translate(-93.774 -45.442)" fill="#bb9437" opacity="0.31"/>
      <path id="Path_9570" data-name="Path 9570" d="M265.076,218.2H258l-3.8,13.272h7.6l-4.749,18.546,13.885-23.613h-8.206Z" transform="translate(-91.221 -46.194)" fill="#bb9437" opacity="0.31"/>
      <path id="Path_9571" data-name="Path 9571" d="M286.833,226.19h-9.027l-4.836,16.927h9.694l-6.051,23.645,17.7-30.112H283.846Z" transform="translate(-89.453 -45.442)" fill="#bb9437" opacity="0.31"/>
      <path id="Path_9572" data-name="Path 9572" d="M391.029,153.955a17.507,17.507,0,0,0-22.288-8.578,17.507,17.507,0,0,0-25.91-1.608,52.915,52.915,0,0,1,21.26,35.889h37.016a16.074,16.074,0,0,0-10.077-25.7Z" transform="translate(-82.874 -53.673)" fill="#103976" opacity="0.13"/>
      <path id="Path_9573" data-name="Path 9573" d="M232.8,98.421a56.81,56.81,0,0,1,40.386,16.719A57.467,57.467,0,0,1,319.231,122c.055-.624.077-1.247.077-1.893a23.513,23.513,0,0,0-19.69-23.2,25.6,25.6,0,0,0-32.612-12.551A25.615,25.615,0,0,0,221.663,96.4a25.593,25.593,0,0,0-18.5,10.318A57.182,57.182,0,0,1,232.8,98.421Z" transform="translate(-96.029 -59.709)" fill="#103976" opacity="0.13"/>
      <path id="Path_9574" data-name="Path 9574" d="M156.4,153.932a56.974,56.974,0,0,1,30.55-17.179,56.9,56.9,0,0,1,7.812-16.741,26.446,26.446,0,0,0-18.273.547A26.512,26.512,0,0,0,129.574,133a26.49,26.49,0,0,0-20.921,39.391H144.9A57,57,0,0,1,156.4,153.932Z" transform="translate(-105.25 -56.33)" fill="#103976" opacity="0.13"/>
      <path id="Path_9575" data-name="Path 9575" d="M364.808,217a44.216,44.216,0,0,0-27.727-70.673,48.2,48.2,0,0,0-61.274-23.6,48.144,48.144,0,0,0-85.259,22.606A48.144,48.144,0,0,0,152.536,217Z" transform="translate(-101.382 -56.899)" fill="#fff"/>
      <path id="Path_9576" data-name="Path 9576" d="M224.916,165.837a8.458,8.458,0,1,1-8.447-8.447,8.458,8.458,0,0,1,8.447,8.447Z" transform="translate(-95.573 -51.922)" fill="#414042"/>
      <path id="Path_9577" data-name="Path 9577" d="M222.685,162.107a4.442,4.442,0,1,1-4.442-4.377,4.442,4.442,0,0,1,4.442,4.377Z" transform="translate(-95.026 -51.89)" fill="#fff"/>
      <path id="Path_9578" data-name="Path 9578" d="M205.44,153.664l23.941,15.45s3.808-17.507,3.283-17.507-8.6-7.047-16.774-7.047" transform="translate(-95.814 -53.13)" fill="#fff"/>
      <circle id="Ellipse_50" data-name="Ellipse 50" cx="8.447" cy="8.447" r="8.447" transform="matrix(1, -0.026, 0.026, 1, 188.08, 105.673)" fill="#414042"/>
      <path id="Path_9579" data-name="Path 9579" d="M278.87,162.107a4.442,4.442,0,1,0,4.442-4.377,4.442,4.442,0,0,0-4.442,4.377Z" transform="translate(-88.898 -51.89)" fill="#fff"/>
      <path id="Path_9580" data-name="Path 9580" d="M297.7,153.664l-23.952,15.45s-3.8-17.507-3.283-17.507,8.6-7.047,16.763-7.047" transform="translate(-89.694 -53.13)" fill="#fff"/>
      <path id="Path_9581" data-name="Path 9581" d="M262.652,191.142a1.215,1.215,0,0,1-1.215-1.215,9.968,9.968,0,1,0-19.936,0,1.225,1.225,0,0,1-2.451,0,12.419,12.419,0,0,1,24.827,0,1.225,1.225,0,0,1-1.225,1.215Z" transform="translate(-92.648 -49.992)" fill="#414042"/>
      <path id="Path_9582" data-name="Path 9582" d="M374.086,183.689a44.319,44.319,0,0,0-1.814-12.541c-26.2,16.4-106.74,54.853-223.348.242a48.2,48.2,0,0,0,3.611,39.336H364.807a44.008,44.008,0,0,0,9.279-27.037Z" transform="translate(-101.382 -50.626)" fill="#414042" opacity="0.1"/>
    </g>
    <path id="Path_9583" data-name="Path 9583" d="M177.533,224.06H130.74a4.67,4.67,0,0,1-3.343-1.429,4.543,4.543,0,0,1-1.276-3.382,10.87,10.87,0,0,1,.306-2,9.851,9.851,0,0,1,7.771-7.21,9.966,9.966,0,0,1,5.946.74,15.836,15.836,0,0,1,30.867-.255,9.8,9.8,0,0,1,2.667-.1,9.455,9.455,0,0,1,8.4,8.932,4.377,4.377,0,0,1-1.276,3.3,4.632,4.632,0,0,1-3.267,1.4Zm-41.5-11.905a7.554,7.554,0,0,0-1.4.128,7.656,7.656,0,0,0-5.959,5.538,9.191,9.191,0,0,0-.242,1.557,2.3,2.3,0,0,0,.625,1.684,2.335,2.335,0,0,0,1.684.715h46.792a2.348,2.348,0,0,0,1.7-.715,2.131,2.131,0,0,0,.612-1.544,7.108,7.108,0,0,0-9.328-6.508l-1.276.421-.2-1.276a13.539,13.539,0,0,0-26.8.612l-.2,1.914-1.582-1.1A7.541,7.541,0,0,0,136.036,212.155Z" transform="translate(580.035 347.269)" fill="#fff"/>
    <path id="Path_9584" data-name="Path 9584" d="M426.506,223.556H387.957a5.87,5.87,0,0,1-4.122-1.7,5.411,5.411,0,0,1-1.6-3.828,13.488,13.488,0,0,1,.191-2.029,11.14,11.14,0,0,1,13.615-8.766,15.263,15.263,0,0,1,28.4,2.527,8.32,8.32,0,0,1,7.758,8.294,5.615,5.615,0,0,1-5.7,5.5Zm-33.088-14.343a8.838,8.838,0,0,0-8.7,7.21,11.6,11.6,0,0,0-.153,1.621,3.1,3.1,0,0,0,.931,2.195,3.522,3.522,0,0,0,2.552,1.034h38.549a3.356,3.356,0,0,0,3.42-3.165,6.048,6.048,0,0,0-6.036-6.074h-1.238l-.2-.944a12.99,12.99,0,0,0-24.717-2.105l-.408,1.008-1.021-.357A8.832,8.832,0,0,0,393.418,209.213Z" transform="translate(650.736 347.353)" fill="#fff"/>
    <path id="Path_9585" data-name="Path 9585" d="M354.4,217.1h-.1a5.1,5.1,0,0,0-5.041-5.1v-.1a5.1,5.1,0,0,0,5.04-5.1h.1a5.1,5.1,0,0,0,5.1,5.1v.1A5.1,5.1,0,0,0,354.4,217.1Z" transform="translate(641.631 349.598)" fill="#113976"/>
    <path id="Path_9586" data-name="Path 9586" d="M198.856,234.2h-.1a5.1,5.1,0,0,0-5.1-5.04v-.1a5.1,5.1,0,0,0,5.1-5.041h.1a5.1,5.1,0,0,0,5.1,5.04v.038A5.1,5.1,0,0,0,198.856,234.2Z" transform="translate(598.677 354.354)" fill="#113976"/>
    <path id="Path_9587" data-name="Path 9587" d="M288.394,219.664h-.217a10.387,10.387,0,0,0-10.387-10.4v-.217a10.374,10.374,0,0,0,10.387-10.387h.217a10.387,10.387,0,0,0,10.4,10.387v.255a10.4,10.4,0,0,0-10.4,10.362Z" transform="translate(621.904 347.353)" fill="#113976"/>
    <rect id="Rectangle_1217" data-name="Rectangle 1217" width="36.699" height="0.212" transform="translate(1108.741 519.709)" fill="#ebebeb"/>
  </g>
</svg>
