<svg xmlns="http://www.w3.org/2000/svg" width="44.216" height="44.216" viewBox="0 0 44.216 44.216"><defs><style>.a{fill:#bb9437;}</style></defs><rect class="a" width="1.416" height="2.004" transform="translate(24.538 12.546) rotate(-45)"/><rect class="a" width="1.416" height="9.016" transform="translate(26.665 14.668) rotate(-45)"/><rect class="a" width="1.416" height="1.416" transform="translate(32.916 31.499) rotate(-45)"/><rect class="a" width="1.416" height="1.416" transform="translate(30.913 33.505) rotate(-45)"/><rect class="a" width="1.347" height="1.416" transform="translate(34.92 29.493) rotate(-45)"/><rect class="a" width="1.416" height="1.416" transform="translate(17.09 31.085) rotate(-45)"/><rect class="a" width="1.416" height="1.416" transform="translate(19.093 33.089) rotate(-45)"/><rect class="a" width="1.416" height="1.416" transform="translate(21.096 35.092) rotate(-45)"/><rect class="a" width="1.416" height="1.416" transform="translate(15.086 29.083) rotate(-45)"/><path class="a" d="M23.379,5.375l-2.5,2.5a10.619,10.619,0,1,0-13,13l-2.5,2.5L26.212,44.216l18-18Zm.7,23.669h.041l.193-.021,1.029,12.325L8.242,24.243l12.325,1.029-.014.152-.007.076A3.546,3.546,0,0,0,24.084,29.044ZM23.918,7.917,41.667,25.666,24.042,27.621a2.126,2.126,0,0,1-2.086-2.086Zm1.81,20.947,15.558-1.727L26.792,41.632ZM1.416,10.626a9.209,9.209,0,1,1,9.209,9.209A9.22,9.22,0,0,1,1.416,10.626Zm9.209,10.626A10.638,10.638,0,0,0,21.251,10.626c0-.359-.021-.719-.055-1.071l1.25-1.25L20.719,23.863,7.959,22.8l1.6-1.6A8.991,8.991,0,0,0,10.626,21.251Z"/><path class="a" d="M12.208,19.683a3.537,3.537,0,0,0,3.468-2.833H19.29V15.2l-1.416-1.893a3.566,3.566,0,0,1-.712-2.128V9.05a4.957,4.957,0,1,0-9.914.007v2.128a3.536,3.536,0,0,1-.712,2.128L5.12,15.2V16.85H8.733A3.555,3.555,0,0,0,12.208,19.683ZM8.664,9.057a3.544,3.544,0,1,1,7.088,0v2.128a4.891,4.891,0,0,0,.221,1.416H8.45a4.891,4.891,0,0,0,.221-1.416V9.057Zm-.988,5.1c.035-.041.055-.1.09-.145h8.892c.035.048.055.1.09.138l.953,1.278H6.716ZM14.2,16.85a2.116,2.116,0,0,1-3.993,0Z" transform="translate(-1.583 -1.264)"/><rect class="a" width="1.416" height="1.416" transform="translate(17.002 9.209)"/><rect class="a" width="1.416" height="1.416" transform="translate(2.833 9.209)"/></svg>