<svg xmlns="http://www.w3.org/2000/svg" width="90.769" height="90.401" viewBox="0 0 90.769 90.401"><defs><style>.a{fill:#113976;}</style></defs><path class="a" d="M-48.875,74.2h17.5V59.617h-17.5Zm2.914-11.665H-34.3v8.747H-45.961Z" transform="translate(57.625 7.454)"/><path class="a" d="M-42.343,59.617V74.2h17.5V59.617Zm14.579,11.665H-39.429V62.535h11.665Z" transform="translate(74.423 7.454)"/><path class="a" d="M-37.21,63.059V48.476A4.379,4.379,0,0,0-41.585,44.1H-44.5a4.377,4.377,0,0,0-4.375,4.372V63.059A4.38,4.38,0,0,0-44.5,67.434h2.914A4.382,4.382,0,0,0-37.21,63.059Zm-8.75,0V48.476A1.46,1.46,0,0,1-44.5,47.018h2.914a1.459,1.459,0,0,1,1.457,1.457V63.059a1.459,1.459,0,0,1-1.457,1.457H-44.5A1.459,1.459,0,0,1-45.961,63.059Z" transform="translate(57.625 -32.439)"/><path class="a" d="M21.436,76.822a4.489,4.489,0,0,0-5.54,0l-2.357,1.929H-10.619A10.461,10.461,0,0,0-10.5,77.29V71.458H7.782l2.864-4.3,2.864,4.3h3.018l2.864-4.3,2.868,4.3h3.018l2.864-4.3,2.864,4.3h2.968l5.468-7.29-5.468-7.293H-10.5V51.042a10.217,10.217,0,0,0-10.2-10.2H-41.117a10.22,10.22,0,0,0-10.208,10.2V77.29a10.176,10.176,0,0,0,5.857,9.193l-5.857,4.686v10.908h2.918v29.162H36.162V97.427a4.338,4.338,0,0,0,1.311-7.486Zm-3.689,2.254a1.491,1.491,0,0,1,1.843,0L35.626,92.2a1.462,1.462,0,0,1,.207,2.054,1.5,1.5,0,0,1-2.05.207L18.665,82.09,3.553,94.455A1.5,1.5,0,0,1,1.5,94.248,1.456,1.456,0,0,1,1.7,92.2ZM-.144,89.944a4.375,4.375,0,0,0-.618,6.15,4.181,4.181,0,0,0,1.929,1.3v1.764H-48.407V93.33H-4.665V90.412H-45.707l10.933-8.747H9.975Zm4.229-21.4H-10.5V65.625H2.628a1.459,1.459,0,0,1,1.457,1.457Zm28.434-8.747L35.8,64.168l-3.254,4.34-2.893-4.34H26.633l-2.864,4.3-2.864-4.3H17.886l-2.864,4.3-2.868-4.3H9.135L7,67.372v-.289a4.379,4.379,0,0,0-4.372-4.375H-10.5V59.793Zm-80.926,17.5V51.042a7.3,7.3,0,0,1,7.29-7.29H-20.7a7.3,7.3,0,0,1,7.29,7.29V77.29a7.343,7.343,0,0,1-.161,1.457H-35.8l-7.015,5.611A7.269,7.269,0,0,1-48.407,77.29Zm2.914,24.787H1.167v26.248h-46.66Zm72.908,26.248H24.5v-17.5H12.832v17.5H9.918V113.742a8.749,8.749,0,0,1,17.5,0Zm-5.832,0H15.75V113.742h5.832Zm8.747,0V113.742a11.665,11.665,0,0,0-23.33,0v14.583H4.085V97.413a4.163,4.163,0,0,0,1.307-.7L18.665,85.858,31.94,96.716a4.34,4.34,0,0,0,1.307.736v30.873Z" transform="translate(51.325 -40.838)"/></svg>