<svg xmlns="http://www.w3.org/2000/svg" width="40.937" height="44.778" viewBox="0 0 40.937 44.778">
  <g id="Group_3644" data-name="Group 3644" transform="translate(0)">
    <path id="Path_9733" data-name="Path 9733" d="M15.573,85.751h0c0-.045-.272-3.451-4.587-3.451-4.36,0-4.587,3.451-4.587,3.5v1a.5.5,0,0,0,.5.5h8.174a.5.5,0,0,0,.5-.5Z" transform="translate(-5.845 -45.197)" fill="#113976"/>
    <path id="Path_9734" data-name="Path 9734" d="M13.471,74.286a2.4,2.4,0,0,0,2.271-2.543A2.435,2.435,0,0,0,13.471,69.2,2.4,2.4,0,0,0,11.2,71.743,2.435,2.435,0,0,0,13.471,74.286Z" transform="translate(-8.465 -38.046)" fill="#113976"/>
    <path id="Path_9735" data-name="Path 9735" d="M82.574,85.751h0c0-.045-.272-3.451-4.587-3.451-4.36,0-4.587,3.451-4.587,3.5v1a.5.5,0,0,0,.5.5h8.174a.5.5,0,0,0,.5-.5Z" transform="translate(-42.418 -45.197)" fill="#113976"/>
    <path id="Path_9736" data-name="Path 9736" d="M80.471,74.286a2.4,2.4,0,0,0,2.271-2.543A2.435,2.435,0,0,0,80.471,69.2a2.559,2.559,0,0,0,0,5.086Z" transform="translate(-45.038 -38.046)" fill="#113976"/>
    <path id="Path_9737" data-name="Path 9737" d="M48.573,17.051h0c0-.045-.272-3.451-4.587-3.451-4.36,0-4.587,3.451-4.587,3.5v1a.5.5,0,0,0,.5.5h8.174a.5.5,0,0,0,.5-.5Z" transform="translate(-23.858 -7.696)" fill="#113976"/>
    <path id="Path_9738" data-name="Path 9738" d="M46.571,5.686a2.4,2.4,0,0,0,2.271-2.543A2.435,2.435,0,0,0,46.571.6,2.4,2.4,0,0,0,44.3,3.143,2.4,2.4,0,0,0,46.571,5.686Z" transform="translate(-26.533 -0.6)" fill="#113976"/>
    <path id="Path_9739" data-name="Path 9739" d="M18.313,14.263a.59.59,0,0,0-.545-.363.34.34,0,0,0-.227.045C.647,21.348,5.96,38.469,6.006,38.65a.542.542,0,0,0,.727.363.706.706,0,0,0,.363-.272.537.537,0,0,0,.045-.454,22.068,22.068,0,0,1-.59-8.992c.954-6.54,4.814-11.308,11.49-14.26A.6.6,0,0,0,18.313,14.263Z" transform="translate(-5.178 -7.86)" fill="#113976"/>
    <path id="Path_9740" data-name="Path 9740" d="M67.131,13.945a.59.59,0,0,0-.454,0,.549.549,0,0,0-.318.318.774.774,0,0,0,0,.454.549.549,0,0,0,.318.318c15.895,6.948,11.081,22.57,10.9,23.252a.574.574,0,1,0,1.09.363C78.711,38.469,84.025,21.348,67.131,13.945Z" transform="translate(-38.556 -7.86)" fill="#113976"/>
    <path id="Path_9741" data-name="Path 9741" d="M47.9,92.938a19.026,19.026,0,0,1-15.168,0,.576.576,0,0,0-.272-.045.273.273,0,0,0-.182.045.706.706,0,0,0-.363.272.537.537,0,0,0-.045.454.706.706,0,0,0,.272.363,18.058,18.058,0,0,0,7.993,1.726,20.37,20.37,0,0,0,8.129-1.68.567.567,0,0,0,.318-.772A.456.456,0,0,0,47.9,92.938Z" transform="translate(-19.729 -50.976)" fill="#113976"/>
    <path id="Path_9742" data-name="Path 9742" d="M37.609,53.336l-.272-.272L33.7,49.431a1.093,1.093,0,0,0-.363-.272c-.091-.045-.182-.045-.363.091a1.826,1.826,0,0,0-.363.727,2.233,2.233,0,0,1-.636,1.135,1.694,1.694,0,0,1-1.226.545h0a1.735,1.735,0,0,1-1.226-3,2.227,2.227,0,0,1,1.181-.59,1.33,1.33,0,0,0,.727-.318.3.3,0,0,0,.091-.363,1.6,1.6,0,0,0-.318-.409l-3.633-3.633-.272-.272.272-.272,3.315-3.315.227-.227.318-.272.272.318a2.086,2.086,0,0,1,.318.727,1.87,1.87,0,0,0,.59,1.09,1.7,1.7,0,0,0,2.407-2.407,2.188,2.188,0,0,0-1.135-.545,1.493,1.493,0,0,1-.727-.318l-.318-.272.227-.318,3.588-3.588.272-.272.272.272,3.633,3.633c.454.454.59.318.727.227a1.528,1.528,0,0,0,.363-.772,1.975,1.975,0,0,1,.59-1.135,1.636,1.636,0,0,1,2.407,0,1.6,1.6,0,0,1,0,2.407,2.279,2.279,0,0,1-1.135.59,1.728,1.728,0,0,0-.772.363c-.091.091-.227.227.227.727l3.633,3.633.272.272-.272.272c-.045.045-3.451,3.451-3.588,3.542l-.318.272-.272-.363a2.141,2.141,0,0,1-.272-.681,2.361,2.361,0,0,0-.545-1.135,1.635,1.635,0,0,0-2.407,0,1.675,1.675,0,0,0-.545,1.181,1.6,1.6,0,0,0,.545,1.181,2.291,2.291,0,0,0,1.135.59,1.792,1.792,0,0,1,.681.272l.363.272-.227.545-3.5,3.5ZM33.2,48.3a1.326,1.326,0,0,1,.409.091,3.468,3.468,0,0,1,.681.454l3.315,3.315,2.725-2.725a2.746,2.746,0,0,1-1.408-.772,2.505,2.505,0,1,1,3.542-3.542,3.135,3.135,0,0,1,.772,1.408l2.77-2.77L42.7,40.439c-.908-.908-.545-1.589-.227-1.907a2.491,2.491,0,0,1,1.135-.59,1.528,1.528,0,0,0,.772-.363.9.9,0,0,0,.272-.59.859.859,0,0,0-.318-.636.954.954,0,0,0-.636-.318.809.809,0,0,0-.59.272,1.233,1.233,0,0,0-.363.772,2.116,2.116,0,0,1-.59,1.135c-.318.318-.954.681-1.907-.227l-3.315-3.315-2.77,2.77a3.035,3.035,0,0,1,1.453.772A2.537,2.537,0,1,1,32.023,41.8a2.853,2.853,0,0,1-.772-1.453l-2.725,2.725,3.315,3.315a2.2,2.2,0,0,1,.5.681,1.125,1.125,0,0,1-.272,1.272,2.361,2.361,0,0,1-1.135.545,1.528,1.528,0,0,0-.772.363.878.878,0,0,0,0,1.272.954.954,0,0,0,.636.318h0a.859.859,0,0,0,.636-.318,1.431,1.431,0,0,0,.409-.772,2.236,2.236,0,0,1,.545-1.09A1.221,1.221,0,0,1,33.2,48.3Z" transform="translate(-17.253 -18.504)" fill="#113976"/>
  </g>
</svg>
