<svg xmlns="http://www.w3.org/2000/svg" width="43.244" height="43.303" viewBox="0 0 43.244 43.303"><defs><style>.a{fill:#ff3434;}</style></defs><path class="a" d="M4366.314,1850.553l-1.153.167a1.219,1.219,0,0,0-1.023,1.434l.218,1.144a1.219,1.219,0,0,1-1.328,1.439l-1.158-.125a1.219,1.219,0,0,0-1.348,1.134l-.073,1.163a1.219,1.219,0,0,1-1.644,1.064l-1.091-.41a1.219,1.219,0,0,0-1.587.764l-.36,1.108a1.218,1.218,0,0,1-1.856.621l-.955-.668a1.218,1.218,0,0,0-1.727.345l-.625.983a1.218,1.218,0,0,1-1.953.14l-.758-.885a1.219,1.219,0,0,0-1.758-.1l-.85.8a1.219,1.219,0,0,1-1.927-.35l-.514-1.045a1.218,1.218,0,0,0-1.679-.529l-1.021.561a1.218,1.218,0,0,1-1.779-.818l-.239-1.14a1.218,1.218,0,0,0-1.495-.931l-1.129.289a1.218,1.218,0,0,1-1.52-1.235l.052-1.164a1.218,1.218,0,0,0-1.216-1.273h-1.165a1.218,1.218,0,0,1-1.165-1.574l.34-1.114a1.219,1.219,0,0,0-.861-1.536l-1.128-.29a1.218,1.218,0,0,1-.737-1.814l.606-.995a1.219,1.219,0,0,0-.453-1.7l-1.021-.562a1.219,1.219,0,0,1-.262-1.94l.835-.812a1.218,1.218,0,0,0-.016-1.761l-.848-.8a1.218,1.218,0,0,1,.228-1.945l1.011-.579a1.219,1.219,0,0,0,.423-1.709l-.625-.984a1.219,1.219,0,0,1,.705-1.827l1.123-.31a1.218,1.218,0,0,0,.835-1.551l-.36-1.108a1.219,1.219,0,0,1,1.138-1.594l1.164-.021a1.219,1.219,0,0,0,1.195-1.294l-.073-1.163a1.218,1.218,0,0,1,1.5-1.261l1.133.27a1.218,1.218,0,0,0,1.479-.956l.219-1.144a1.218,1.218,0,0,1,1.764-.849l1.03.543a1.219,1.219,0,0,0,1.67-.559l.5-1.054a1.218,1.218,0,0,1,1.92-.384l.863.782a1.218,1.218,0,0,0,1.756-.126l.743-.9a1.218,1.218,0,0,1,1.955.106l.641.972a1.219,1.219,0,0,0,1.733.315l.943-.684a1.218,1.218,0,0,1,1.868.589l.38,1.1a1.218,1.218,0,0,0,1.6.736l1.083-.428a1.218,1.218,0,0,1,1.662,1.035l.094,1.161a1.219,1.219,0,0,0,1.367,1.111l1.156-.146a1.218,1.218,0,0,1,1.353,1.416l-.2,1.148a1.218,1.218,0,0,0,1.047,1.416l1.156.147a1.219,1.219,0,0,1,.959,1.707l-.478,1.063a1.219,1.219,0,0,0,.662,1.632l1.083.429a1.219,1.219,0,0,1,.5,1.892l-.727.911a1.218,1.218,0,0,0,.236,1.745l.942.685a1.218,1.218,0,0,1,.017,1.958l-.93.7a1.219,1.219,0,0,0-.206,1.749l.742.9a1.218,1.218,0,0,1-.47,1.9l-1.075.448a1.219,1.219,0,0,0-.634,1.643l.5,1.054A1.218,1.218,0,0,1,4366.314,1850.553Z" transform="translate(-4326.56 -1817.978)"/></svg>