<svg xmlns="http://www.w3.org/2000/svg" width="76.047" height="88.958" viewBox="0 0 76.047 88.958"><defs><style>.a{fill:#bb9337;}</style></defs><rect class="a" width="2.87" height="2.87" transform="translate(51.655 17.217)"/><path class="a" d="M46.6,70.527l-.161.082a5.475,5.475,0,0,0-3.514-3.457,12.839,12.839,0,0,0,2.393-7.461v-5.74a12.9,12.9,0,0,0-24.466-5.74H14.462a3.588,3.588,0,0,0,0,7.175h5.025v4.3A12.928,12.928,0,0,0,32.4,72.606c.3,0,.593-.025.886-.046l-4.547,4.547-12.7,4.622a5.654,5.654,0,0,0-3.614,4.279A24.236,24.236,0,0,0-2.036,81.214,24.422,24.422,0,0,0-26.43,105.608,24.421,24.421,0,0,0-2.036,130a24.421,24.421,0,0,0,24.391-24.391,24.21,24.21,0,0,0-3.736-12.915h.054a5.632,5.632,0,0,0,2.1-.4l7.322-2.929V120.5l-3.475,1.739A4.095,4.095,0,0,0,26.451,130H49.617V83.328A28.789,28.789,0,0,0,46.6,70.527Zm-8.911-2.311a9.968,9.968,0,0,1-3.85,1.4V65.359a3.59,3.59,0,0,0,0-7.033V55.387h8.608v4.3a10.014,10.014,0,0,1-3.84,7.883A5.372,5.372,0,0,0,37.684,68.216ZM32.4,43.908a10.051,10.051,0,0,1,9.929,8.608H22.469A10.051,10.051,0,0,1,32.4,43.908ZM13.747,51.8a.717.717,0,0,1,.714-.718h5.357a12.766,12.766,0,0,0-.25,1.432H14.462A.716.716,0,0,1,13.747,51.8Zm8.608,7.89v-4.3h8.608v5.74h2.154a.718.718,0,0,1,0,1.436H30.962V69.62A10.051,10.051,0,0,1,22.355,59.691ZM30.32,79.585l9.018-9.022c.293-.186.575-.386.85-.6a2.613,2.613,0,0,1,3.689,2.393,2.6,2.6,0,0,1-.768,1.854L33.027,84.3l-9.776,3.911L21.14,82.924Zm-16.1,40.088.386-2.7-2.839-.4-.889,6.222A21.377,21.377,0,0,1-.5,127.052l2.193-1.643-1.722-2.3-5.04,3.779A21.45,21.45,0,0,1-16.1,121.859l2.7.386.407-2.839-6.222-.889a21.341,21.341,0,0,1-4.265-11.372l1.643,2.193,2.293-1.722-3.775-5.036a21.416,21.416,0,0,1,5.029-11.04l-.386,2.7,2.839.407.893-6.222A21.347,21.347,0,0,1-3.575,84.164l-2.193,1.643L-4.047,88.1l5.04-3.775a21.394,21.394,0,0,1,11.036,5.032l-2.7-.386-.407,2.839,6.222.889A21.318,21.318,0,0,1,19.4,104.068l-1.643-2.193L15.469,103.6l3.775,5.04A21.376,21.376,0,0,1,14.215,119.673Zm4.457-29.848h-.707a2.784,2.784,0,0,1-.954-5.4L18.44,83.9l2.147,5.368-.882.354A2.752,2.752,0,0,1,18.672,89.825Zm15.969-3.082,10.5-10.5a5.341,5.341,0,0,0,.443-.543,25.792,25.792,0,0,1,1.164,7.625v36.627H38.138V98.432H35.27v21.523H30.962V88.21Zm-9.418,39.163a1.218,1.218,0,0,1,.679-1.1l3.965-1.986h1.075a4.068,4.068,0,0,0-1.411,3.082,3.988,3.988,0,0,0,.207,1.225H26.451A1.228,1.228,0,0,1,25.223,125.905ZM36.7,127.13H33.623a1.225,1.225,0,0,1-.546-2.322l3.965-1.986h9.7v4.307Z" transform="translate(26.43 -41.04)"/><path class="a" d="M-8.233,54.7A15.8,15.8,0,0,0-24.02,70.482,15.8,15.8,0,0,0-8.233,86.265,15.8,15.8,0,0,0,7.55,70.482,15.8,15.8,0,0,0-8.233,54.7Zm0,28.694A12.928,12.928,0,0,1-21.148,70.482,12.929,12.929,0,0,1-8.233,57.567,12.928,12.928,0,0,1,4.678,70.482,12.928,12.928,0,0,1-8.233,83.393Z" transform="translate(32.628 -5.914)"/><path class="a" d="M-11.335,55.9A11.491,11.491,0,0,0-22.814,67.383,11.488,11.488,0,0,0-11.335,78.859,11.487,11.487,0,0,0,.141,67.383,11.49,11.49,0,0,0-11.335,55.9Zm8.608,11.479a8.531,8.531,0,0,1-.55,3L-7.11,68.165a4.366,4.366,0,0,0,.079-.782A4.334,4.334,0,0,0-7.11,66.6l3.832-2.214A8.5,8.5,0,0,1-2.727,67.383ZM-4.706,61.9-8.56,64.119A4.27,4.27,0,0,0-9.9,63.34V58.9A8.616,8.616,0,0,1-4.706,61.9Zm-6.629,6.918a1.435,1.435,0,0,1-1.436-1.432,1.436,1.436,0,0,1,1.436-1.436A1.435,1.435,0,0,1-9.9,67.383,1.434,1.434,0,0,1-11.335,68.815ZM-12.771,58.9v4.44a4.27,4.27,0,0,0-1.343.779L-17.967,61.9A8.616,8.616,0,0,1-12.771,58.9Zm-7.175,8.483a8.536,8.536,0,0,1,.55-3l3.832,2.214a4.406,4.406,0,0,0-.079.786,4.367,4.367,0,0,0,.079.782L-19.4,70.376A8.5,8.5,0,0,1-19.946,67.383Zm1.979,5.482,3.854-2.222a4.269,4.269,0,0,0,1.343.779v4.44A8.616,8.616,0,0,1-17.967,72.866Zm8.065,3v-4.44a4.269,4.269,0,0,0,1.343-.779l3.854,2.222A8.616,8.616,0,0,1-9.9,75.862Z" transform="translate(35.729 -2.815)"/></svg>