<svg xmlns="http://www.w3.org/2000/svg" width="83.08" height="90.766" viewBox="0 0 83.08 90.766"><defs><style>.a{fill:#bb9337;}</style></defs><g transform="translate(0)"><g transform="translate(0 0)"><path class="a" d="M86.851,40.787H7.561A1.892,1.892,0,0,0,5.668,42.68v86.976a1.892,1.892,0,0,0,1.893,1.9h79.29a1.9,1.9,0,0,0,1.9-1.9V42.68A1.9,1.9,0,0,0,86.851,40.787Zm-1.893,86.976H9.457V44.576h75.5Z" transform="translate(-5.668 -40.787)"/><rect class="a" width="35.857" height="3.791" transform="translate(14.054 13.159)"/><rect class="a" width="13.312" height="3.791" transform="translate(57.766 13.159)"/><rect class="a" width="13.312" height="3.791" transform="translate(57.766 20.741)"/><path class="a" d="M11.323,77.384H37.438a1.9,1.9,0,0,0,1.9-1.9V49.372a1.9,1.9,0,0,0-1.9-1.893H11.323a1.9,1.9,0,0,0-1.9,1.893V75.488A1.9,1.9,0,0,0,11.323,77.384Zm1.9-26.116H35.542V73.595H13.219Z" transform="translate(3.996 -23.578)"/><path class="a" d="M11.323,76.532H24.38a1.9,1.9,0,0,0,1.893-1.9V59.164a1.9,1.9,0,0,0-1.893-1.9H11.323a1.9,1.9,0,0,0-1.9,1.9V74.636A1.9,1.9,0,0,0,11.323,76.532Zm1.9-15.472h9.265V72.739H13.219Z" transform="translate(3.996 1.593)"/><path class="a" d="M19.389,51.389V70.3a1.9,1.9,0,0,0,1.9,1.9H40.2a1.9,1.9,0,0,0,1.9-1.9V51.389A1.9,1.9,0,0,0,40.2,49.5H21.286A1.9,1.9,0,0,0,19.389,51.389Zm3.793,1.9H38.3V68.408H23.182Z" transform="translate(29.617 -18.391)"/><path class="a" d="M50.35,57.267H17.338a1.9,1.9,0,0,0-1.9,1.9V74.636a1.9,1.9,0,0,0,1.9,1.9H50.35a1.9,1.9,0,0,0,1.9-1.9V59.164A1.9,1.9,0,0,0,50.35,57.267Zm-1.9,15.472H19.23V61.06H48.454Z" transform="translate(19.464 1.593)"/></g></g></svg>