<svg xmlns="http://www.w3.org/2000/svg" width="90.767" height="90.771" viewBox="0 0 90.767 90.771"><defs><style>.a{fill:#113976;}</style></defs><path class="a" d="M65.339,113.551a4.582,4.582,0,0,0,.321-1.664V78.606a4.553,4.553,0,0,0-4.54-4.54H45.313c-.339-2.836-.793-5.654-1.361-8.433l-.114-.511,1.947-5.068a3.031,3.031,0,0,0-.339-2.836,2.964,2.964,0,0,0-2.422-1.286H6.643a2.969,2.969,0,0,0-2.422,1.286,3.082,3.082,0,0,0-.339,2.836l1.947,5.068-.114.511a101.591,101.591,0,0,0,0,41.074l.114.507-1.947,5.068a3.157,3.157,0,0,0-.207,1.1H.611V48.351a7.564,7.564,0,0,0-7.565-7.565h-10.59a4.527,4.527,0,0,0-4.536,4.54,4.524,4.524,0,0,0,4.536,4.536h9.079v65.05A7.56,7.56,0,0,0-.9,122.476H2.936a6.049,6.049,0,1,0,10.476-.018H48.32A6.049,6.049,0,1,0,58.8,122.44h5.35a4.523,4.523,0,0,0,1.193-8.89ZM47.506,77.092h3.025v4.54H47.506Zm-3.025,0v7.565h9.075V77.092h7.565a1.52,1.52,0,0,1,1.514,1.514V93.735H41.456V78.606a1.52,1.52,0,0,1,1.514-1.514Zm9.075,27.23V96.76h9.079v15.126a1.52,1.52,0,0,1-1.514,1.514H42.97a1.52,1.52,0,0,1-1.514-1.514V96.76h3.025v7.561Zm-6.05-3.025V96.76h3.025V101.3ZM6.7,58.958v-.018H42.97v.018l-2.272,5.9.286,1.379c.529,2.593.964,5.24,1.286,7.886a4.532,4.532,0,0,0-3.839,4.482v33.28a4.613,4.613,0,0,0,.264,1.514H6.7v-.021l2.268-5.9L8.686,106.1a98.206,98.206,0,0,1,0-39.863l.282-1.379Zm1.475,69.568A3.025,3.025,0,1,1,11.2,125.5,3.033,3.033,0,0,1,8.175,128.526Zm45.381,0a3.025,3.025,0,1,1,3.029-3.025A3.036,3.036,0,0,1,53.556,128.526Zm10.59-9.075H-.9a4.552,4.552,0,0,1-4.536-4.54V49.862a3.033,3.033,0,0,0-3.025-3.025h-9.079a1.514,1.514,0,0,1-1.511-1.511,1.517,1.517,0,0,1,1.511-1.514h10.59a4.553,4.553,0,0,1,4.54,4.54V113.4a3.033,3.033,0,0,0,3.025,3.025H64.146a1.513,1.513,0,1,1,0,3.025Z" transform="translate(22.081 -40.786)"/><rect class="a" width="7.564" height="3.026" transform="translate(3.026 66.563)"/><rect class="a" width="7.564" height="3.026" transform="translate(0 72.614)"/><rect class="a" width="4.538" height="3.026" transform="translate(6.051 60.512)"/><rect class="a" width="21.179" height="3.026" transform="translate(36.307 25.717)"/><rect class="a" width="21.179" height="3.026" transform="translate(36.307 63.537)"/><path class="a" d="M4.061,57.669A7.564,7.564,0,0,0-3.5,50.1a7.564,7.564,0,0,0-7.565,7.565A7.564,7.564,0,0,0-3.5,65.233,7.564,7.564,0,0,0,4.061,57.669ZM-3.5,62.208a4.53,4.53,0,0,1-4.54-4.54,4.53,4.53,0,0,1,4.54-4.54,4.53,4.53,0,0,1,4.54,4.54A4.553,4.553,0,0,1-3.5,62.208Z" transform="translate(50.4 -16.824)"/><rect class="a" width="9.077" height="3.026" transform="translate(36.307 57.486)"/><rect class="a" width="9.077" height="3.026" transform="translate(48.409 57.486)"/><path class="a" d="M18.054,49.862a8.536,8.536,0,0,1-8.547-8.547v-.529H6.482v.529a8.538,8.538,0,0,1-8.547,8.547H-2.6v3.025h.532a8.541,8.541,0,0,1,8.547,8.55v.529H9.507v-.529a8.539,8.539,0,0,1,8.547-8.55h.529V49.862ZM7.993,55.726a11.664,11.664,0,0,0-4.35-4.35,11.69,11.69,0,0,0,4.35-4.35,11.716,11.716,0,0,0,4.35,4.35A11.69,11.69,0,0,0,7.993,55.726Z" transform="translate(72.184 -40.786)"/><rect class="a" width="3.026" height="4.538" transform="translate(43.871 0)"/><rect class="a" width="4.538" height="3.026" transform="translate(46.896 4.538)"/><rect class="a" width="3.026" height="4.538" transform="translate(43.871 7.564)"/><rect class="a" width="4.538" height="3.026" transform="translate(39.332 4.538)"/><rect class="a" width="3.026" height="3.026" transform="translate(72.614 25.717)"/><rect class="a" width="3.026" height="3.026" transform="translate(60.511 3.026)"/></svg>