<svg xmlns="http://www.w3.org/2000/svg" width="41.452" height="41.452" viewBox="0 0 41.452 41.452"><defs><style>.a{fill:#bb9437;}</style></defs><path class="a" d="M33.089,14.722,40.321,7.49a2.693,2.693,0,0,0,.368.037A2.8,2.8,0,1,0,38.958,6.9L32.8,13.058a3.458,3.458,0,0,0-3.164-2.077H28.019L32,7.5a2.763,2.763,0,1,0-1.686-.361l-4.393,3.845h-2.5V7.429a2.764,2.764,0,1,0-1.382,0v3.552h-2.5L15.137,7.137a2.764,2.764,0,1,0-1.685.361l3.981,3.484H15.817a3.458,3.458,0,0,0-3.164,2.077L6.495,6.9a2.747,2.747,0,1,0-1.731.627,2.693,2.693,0,0,0,.368-.037l7.232,7.232v3l-4.9-1.088a2.791,2.791,0,1,0-.082,1.4l4.978,1.106V24.8H7.429a2.764,2.764,0,1,0,0,1.382h4.934V36.544A3.458,3.458,0,0,0,15.817,40h3.454v3.454h1.382V40h8.29a.691.691,0,0,0,.488-1.179l-1.87-1.87V33.089a.689.689,0,0,0-.2-.488l-2.337-2.336,0-.006-.542-.54a1.264,1.264,0,0,1,.893-2.157,1.272,1.272,0,0,1,.893.37l5.646,5.645a.691.691,0,0,0,1.179-.488V29.23L35.162,31.3v12.15h1.382V31.017a.689.689,0,0,0-.2-.488l-3.252-3.252v-1.1h4.934a2.764,2.764,0,1,0,0-1.382H33.089V19.135l4.978-1.106a2.739,2.739,0,1,0-.082-1.4l-4.9,1.088Zm7.6-11.34a1.382,1.382,0,1,1-1.382,1.382A1.383,1.383,0,0,1,40.689,3.382Zm-8.981,0a1.382,1.382,0,1,1-1.382,1.382A1.383,1.383,0,0,1,31.708,3.382ZM21.344,4.763a1.382,1.382,0,1,1,1.382,1.382A1.383,1.383,0,0,1,21.344,4.763Zm-8.981,0a1.382,1.382,0,1,1,1.382,1.382A1.383,1.383,0,0,1,12.363,4.763Zm-8.981,0A1.382,1.382,0,1,1,4.763,6.145,1.383,1.383,0,0,1,3.382,4.763ZM4.763,18.581A1.382,1.382,0,1,1,6.145,17.2,1.383,1.383,0,0,1,4.763,18.581Zm0,8.29A1.382,1.382,0,1,1,6.145,25.49,1.383,1.383,0,0,1,4.763,26.871Zm35.925-2.763a1.382,1.382,0,1,1-1.382,1.382A1.383,1.383,0,0,1,40.689,24.108Zm0-8.29A1.382,1.382,0,1,1,39.307,17.2,1.383,1.383,0,0,1,40.689,15.817ZM15.817,12.363H29.635a2.075,2.075,0,0,1,2.073,2.073v.691H13.745v-.691A2.075,2.075,0,0,1,15.817,12.363Zm4.145,26.253H15.817a2.075,2.075,0,0,1-2.073-2.073v-.691H26.181v1.382a.689.689,0,0,0,.2.488l.893.893Zm5.408-12.436a2.648,2.648,0,0,0-2.645,2.645,2.705,2.705,0,0,0,.046.469c.008.046.02.091.031.136a2.638,2.638,0,0,0,.1.325c.017.044.032.088.051.131a2.63,2.63,0,0,0,.2.377c.007.01.012.021.019.032l.006.011q-.226.019-.453.019A5.527,5.527,0,1,1,28.253,24.8a5.464,5.464,0,0,1-.625,2.544l-.388-.387A2.624,2.624,0,0,0,25.371,26.181Zm6.337,5.241-3.067-3.066a6.832,6.832,0,0,0,.994-3.557A7,7,0,1,0,24.31,31.5l1.871,1.871v1.1H13.745V16.508H31.708V31.421Z" transform="translate(-2 -2)"/><path class="a" d="M28.854,34.3,27.27,32.711l-.977.977,2.073,2.073a.691.691,0,0,0,.977,0l4.491-4.491-.977-.977Z" transform="translate(-9.51 -10.746)"/><rect class="a" width="1" height="1" transform="translate(13.618 30.023)"/><rect class="a" width="1" height="1" transform="translate(13.618 27.023)"/><rect class="a" width="2" height="1" transform="translate(15.618 30.023)"/></svg>