<svg id="Group_3250" data-name="Group 3250" xmlns="http://www.w3.org/2000/svg" width="52.267" height="38.329" viewBox="0 0 52.267 38.329">
  <path id="Path_5702" data-name="Path 5702" d="M31.134,969.361a15.539,15.539,0,0,1,15.408,12.994,12.748,12.748,0,0,1-2.051,25.334H16.034a11.012,11.012,0,0,1-.472-22.014A15.525,15.525,0,0,1,31.134,969.36Zm0,2.323a13.335,13.335,0,0,0-13.248,14.954,1.162,1.162,0,0,1-1.161,1.307h-.69a8.711,8.711,0,1,0,0,17.422H44.491a10.458,10.458,0,0,0,.962-20.87,1.162,1.162,0,0,1-1.053-1.016,13.315,13.315,0,0,0-13.266-11.8Zm0,11.615a1.262,1.262,0,0,1,.78.291L38.3,989.4a1.194,1.194,0,0,1,.091,1.651,1.215,1.215,0,0,1-1.652.073L32.3,987.074V999.56a1.161,1.161,0,0,1-2.323,0V987.074l-4.446,4.047a1.238,1.238,0,0,1-1.652-.073,1.18,1.18,0,0,1,.091-1.651l6.388-5.807A1.014,1.014,0,0,1,31.134,983.3Z" transform="translate(-5 -969.36)" fill="#8b8b8b"/>
</svg>
